<svg width="200" height="201" viewBox="0 0 200 201" fill="none" xmlns="http://www.w3.org/2000/svg">
<g clip-path="url(#clip0_2010_82)">
<circle cx="100" cy="100.5" r="100" fill="#E4002B"/>
<g filter="url(#filter0_d_2010_82)">
<path d="M96.4493 37.8695C95.5209 38.065 94.0796 38.5291 93.2735 38.92C91.0993 39.9704 38.5279 77.7611 37.7706 78.8115C36.5492 80.5459 36.7935 82.8911 38.4058 84.6743C39.4318 85.8225 40.4578 86.311 41.8503 86.311C43.2916 86.311 44.1222 85.8958 47.4934 83.4529C59.0239 75.1228 96.4737 48.3493 97.1333 47.9585C98.428 47.2012 99.967 47.079 101.237 47.6409C101.824 47.9096 114.087 56.5817 128.451 66.8905C142.84 77.1992 154.932 85.798 155.372 85.969C156.3 86.3599 157.839 86.4087 158.719 86.0668C159.769 85.6759 161.26 84.1369 161.699 82.9888C162.212 81.6208 162.066 80.0085 161.284 78.8604C160.893 78.2741 153.833 73.0709 139.689 62.9331C128.134 54.6518 116.164 46.0531 113.061 43.8301C106.807 39.3353 105.146 38.3825 102.386 37.8451C100.089 37.381 98.6967 37.381 96.4493 37.8695Z" fill="white"/>
</g>
<g filter="url(#filter1_d_2010_82)">
<path d="M96.8646 62.1514C93.7377 62.6888 92.8338 63.2751 72.2645 78.1275C61.3936 85.9935 51.8662 93.0044 51.1334 93.7128C49.4966 95.3251 48.1286 97.5725 47.3957 99.8688L46.8583 101.579V126.007V150.436L47.5423 152.39C48.8859 156.225 51.3777 159.083 54.9199 160.842C58.3399 162.528 58.5354 162.552 75.7579 162.479C90.1222 162.405 91.1237 162.381 91.9055 161.966C92.8826 161.428 93.8354 160.451 94.2262 159.596C94.3972 159.181 94.5438 155.37 94.6171 147.7L94.7393 136.438L95.4721 135.388C97.4997 132.53 101.506 132.53 103.534 135.388L104.267 136.438L104.389 147.7C104.462 155.37 104.609 159.181 104.78 159.596C105.17 160.451 106.123 161.428 107.1 161.966C107.882 162.381 108.835 162.405 123.932 162.405C139.909 162.405 139.933 162.405 141.692 161.844C146.382 160.378 149.851 157.007 151.464 152.39L152.148 150.436V126.007V101.579L151.61 99.8688C150.926 97.6946 149.558 95.374 148.043 93.8594C147.408 93.2243 140.983 88.4119 133.752 83.2086C126.546 78.0054 117.605 71.5563 113.916 68.8936C106.905 63.8125 105.879 63.1773 103.656 62.5178C101.995 62.0292 98.599 61.8338 96.8646 62.1514ZM101.335 72.1181C101.873 72.3624 111.033 78.8604 121.685 86.5553C136.464 97.2061 141.228 100.773 141.716 101.53L142.376 102.531L142.449 125.494C142.523 151.193 142.62 149.727 140.788 151.388C140.275 151.852 139.42 152.341 138.907 152.488C138.321 152.659 133.704 152.756 126.082 152.756H114.16V144.744C114.16 135.705 114.014 134.508 112.548 131.504C111.424 129.232 108.664 126.374 106.416 125.201C104.462 124.175 101.579 123.442 99.5029 123.442C97.4264 123.442 94.5438 124.175 92.5895 125.201C90.342 126.374 87.5815 129.232 86.4578 131.504C84.9921 134.508 84.8455 135.705 84.8455 144.744V152.756H72.9485C65.3022 152.756 60.6851 152.659 60.0988 152.488C59.5858 152.341 58.7308 151.852 58.2178 151.388C56.3856 149.727 56.4833 151.193 56.5566 125.494L56.6299 102.531L57.2651 101.554C57.7781 100.797 62.615 97.1817 77.1747 86.653C87.777 79.0069 96.9379 72.509 97.5242 72.1914C98.8189 71.5319 100.016 71.5074 101.335 72.1181Z" fill="white"/>
</g>
</g>
<defs>
<filter id="filter0_d_2010_82" x="32" y="32.5" width="145" height="68.811" filterUnits="userSpaceOnUse" color-interpolation-filters="sRGB">
<feFlood flood-opacity="0" result="BackgroundImageFix"/>
<feColorMatrix in="SourceAlpha" type="matrix" values="0 0 0 0 0 0 0 0 0 0 0 0 0 0 0 0 0 0 127 0" result="hardAlpha"/>
<feOffset dx="5" dy="5"/>
<feGaussianBlur stdDeviation="5"/>
<feComposite in2="hardAlpha" operator="out"/>
<feColorMatrix type="matrix" values="0 0 0 0 0 0 0 0 0 0 0 0 0 0 0 0 0 0 0.5 0"/>
<feBlend mode="normal" in2="BackgroundImageFix" result="effect1_dropShadow_2010_82"/>
<feBlend mode="normal" in="SourceGraphic" in2="effect1_dropShadow_2010_82" result="shape"/>
</filter>
<filter id="filter1_d_2010_82" x="41.8583" y="56.9966" width="125.289" height="120.503" filterUnits="userSpaceOnUse" color-interpolation-filters="sRGB">
<feFlood flood-opacity="0" result="BackgroundImageFix"/>
<feColorMatrix in="SourceAlpha" type="matrix" values="0 0 0 0 0 0 0 0 0 0 0 0 0 0 0 0 0 0 127 0" result="hardAlpha"/>
<feOffset dx="5" dy="5"/>
<feGaussianBlur stdDeviation="5"/>
<feComposite in2="hardAlpha" operator="out"/>
<feColorMatrix type="matrix" values="0 0 0 0 0 0 0 0 0 0 0 0 0 0 0 0 0 0 0.5 0"/>
<feBlend mode="normal" in2="BackgroundImageFix" result="effect1_dropShadow_2010_82"/>
<feBlend mode="normal" in="SourceGraphic" in2="effect1_dropShadow_2010_82" result="shape"/>
</filter>
<clipPath id="clip0_2010_82">
<rect width="200" height="200" fill="white" transform="translate(0 0.5)"/>
</clipPath>
</defs>
</svg>
