<svg width="850" height="850" viewBox="0 0 850 850" fill="none" xmlns="http://www.w3.org/2000/svg">
<circle cx="425" cy="425" r="425" fill="#E4002B"/>
<g filter="url(#filter0_d_2032_38)">
<mask id="path-2-outside-1_2032_38" maskUnits="userSpaceOnUse" x="180" y="541" width="493" height="201" fill="black">
<rect fill="white" x="180" y="541" width="493" height="201"/>
<path d="M306.607 600.6H281.407L275.007 619H261.307L287.507 550.1H300.507L326.807 619H313.007L306.607 600.6ZM303.207 591L294.007 564.4L284.707 591H303.207ZM397.579 551V619L385.479 619.1L350.679 571.1L351.679 594V619H338.079V551H350.179L384.979 598.9L383.979 574.7V551H397.579ZM473.768 620.3C465.902 620.3 459.235 618.7 453.768 615.5C448.368 612.233 444.302 607.933 441.568 602.6C438.902 597.2 437.568 591.3 437.568 584.9C437.568 578.567 438.968 572.733 441.768 567.4C444.635 562.067 448.868 557.8 454.468 554.6C460.068 551.4 466.835 549.8 474.768 549.8C478.968 549.8 482.902 550.367 486.568 551.5C490.302 552.633 493.502 554.2 496.168 556.2L492.568 565.5C490.302 563.833 487.635 562.467 484.568 561.4C481.568 560.333 478.302 559.8 474.768 559.8C469.835 559.8 465.568 560.9 461.968 563.1C458.435 565.3 455.735 568.333 453.868 572.2C452.068 576 451.168 580.267 451.168 585C451.168 589.867 452.035 594.233 453.768 598.1C455.502 601.9 458.068 604.9 461.468 607.1C464.868 609.3 468.968 610.4 473.768 610.4C477.635 610.4 481.235 609.767 484.568 608.5C487.902 607.167 490.835 605.533 493.368 603.6L496.768 612.7C493.902 614.9 490.468 616.733 486.468 618.2C482.468 619.6 478.235 620.3 473.768 620.3ZM568.516 556.8C570.116 556.2 571.416 555.267 572.416 554C573.483 552.733 574.249 551.167 574.716 549.3C575.249 547.367 575.516 545.267 575.516 543H590.216L590.916 544.1C590.383 546.767 589.649 549.3 588.716 551.7C587.783 554.1 586.516 556.267 584.916 558.2C583.316 560.067 581.183 561.667 578.516 563C575.849 564.267 572.516 565.2 568.516 565.8V593.8C568.516 598.733 567.416 603.2 565.216 607.2C563.083 611.133 559.816 614.267 555.416 616.6C551.083 618.867 545.583 620 538.916 620C529.449 620 522.249 617.6 517.316 612.8C512.383 607.933 509.916 601.533 509.916 593.6V547.6H525.016V592.5C525.016 597.767 526.216 601.567 528.616 603.9C531.016 606.167 534.583 607.3 539.316 607.3C542.649 607.3 545.349 606.767 547.416 605.7C549.483 604.567 550.983 602.9 551.916 600.7C552.916 598.433 553.416 595.667 553.416 592.4V547.6H568.516V556.8ZM217.811 740.3C209.945 740.3 203.278 738.7 197.811 735.5C192.411 732.233 188.345 727.933 185.611 722.6C182.945 717.2 181.611 711.3 181.611 704.9C181.611 698.567 183.011 692.733 185.811 687.4C188.678 682.067 192.911 677.8 198.511 674.6C204.111 671.4 210.878 669.8 218.811 669.8C223.011 669.8 226.945 670.367 230.611 671.5C234.345 672.633 237.545 674.2 240.211 676.2L236.611 685.5C234.345 683.833 231.678 682.467 228.611 681.4C225.611 680.333 222.345 679.8 218.811 679.8C213.878 679.8 209.611 680.9 206.011 683.1C202.478 685.3 199.778 688.333 197.911 692.2C196.111 696 195.211 700.267 195.211 705C195.211 709.867 196.078 714.233 197.811 718.1C199.545 721.9 202.111 724.9 205.511 727.1C208.911 729.3 213.011 730.4 217.811 730.4C221.678 730.4 225.278 729.767 228.611 728.5C231.945 727.167 234.878 725.533 237.411 723.6L240.811 732.7C237.945 734.9 234.511 736.733 230.511 738.2C226.511 739.6 222.278 740.3 217.811 740.3ZM285.559 740.4C278.092 740.4 271.726 738.833 266.459 735.7C261.192 732.5 257.192 728.233 254.459 722.9C251.792 717.5 250.459 711.567 250.459 705.1C250.459 698.567 251.792 692.633 254.459 687.3C257.126 681.967 261.092 677.733 266.359 674.6C271.692 671.4 278.092 669.8 285.559 669.8C292.959 669.8 299.292 671.4 304.559 674.6C309.892 677.733 313.892 681.967 316.559 687.3C319.292 692.633 320.659 698.533 320.659 705C320.659 711.533 319.292 717.5 316.559 722.9C313.892 728.233 309.926 732.5 304.659 735.7C299.392 738.833 293.026 740.4 285.559 740.4ZM285.659 730.4C290.126 730.4 293.959 729.3 297.159 727.1C300.426 724.9 302.892 721.9 304.559 718.1C306.292 714.233 307.159 709.867 307.159 705C307.159 700.2 306.292 695.9 304.559 692.1C302.892 688.3 300.426 685.3 297.159 683.1C293.959 680.9 290.126 679.8 285.659 679.8C281.126 679.8 277.226 680.9 273.959 683.1C270.759 685.3 268.326 688.3 266.659 692.1C264.992 695.9 264.159 700.2 264.159 705C264.159 709.867 264.992 714.233 266.659 718.1C268.326 721.9 270.759 724.9 273.959 727.1C277.226 729.3 281.126 730.4 285.659 730.4ZM395.332 671V739L383.232 739.1L348.432 691.1L349.432 714V739H335.832V671H347.932L382.732 718.9L381.732 694.7V671H395.332ZM474.922 671V739L462.822 739.1L428.022 691.1L429.022 714V739H415.422V671H427.522L462.322 718.9L461.322 694.7V671H474.922ZM538.912 729.3V739H495.012V671H536.912V680.7H508.612V698.2H532.912V707.9H508.612V729.3H538.912ZM585.389 740.3C577.523 740.3 570.856 738.7 565.389 735.5C559.989 732.233 555.923 727.933 553.189 722.6C550.523 717.2 549.189 711.3 549.189 704.9C549.189 698.567 550.589 692.733 553.389 687.4C556.256 682.067 560.489 677.8 566.089 674.6C571.689 671.4 578.456 669.8 586.389 669.8C590.589 669.8 594.523 670.367 598.189 671.5C601.923 672.633 605.123 674.2 607.789 676.2L604.189 685.5C601.923 683.833 599.256 682.467 596.189 681.4C593.189 680.333 589.923 679.8 586.389 679.8C581.456 679.8 577.189 680.9 573.589 683.1C570.056 685.3 567.356 688.333 565.489 692.2C563.689 696 562.789 700.267 562.789 705C562.789 709.867 563.656 714.233 565.389 718.1C567.123 721.9 569.689 724.9 573.089 727.1C576.489 729.3 580.589 730.4 585.389 730.4C589.256 730.4 592.856 729.767 596.189 728.5C599.523 727.167 602.456 725.533 604.989 723.6L608.389 732.7C605.523 734.9 602.089 736.733 598.089 738.2C594.089 739.6 589.856 740.3 585.389 740.3ZM670.737 680.8H650.037V739H636.437V680.8H615.737V671H670.737V680.8Z"/>
</mask>
<path d="M306.607 600.6H281.407L275.007 619H261.307L287.507 550.1H300.507L326.807 619H313.007L306.607 600.6ZM303.207 591L294.007 564.4L284.707 591H303.207ZM397.579 551V619L385.479 619.1L350.679 571.1L351.679 594V619H338.079V551H350.179L384.979 598.9L383.979 574.7V551H397.579ZM473.768 620.3C465.902 620.3 459.235 618.7 453.768 615.5C448.368 612.233 444.302 607.933 441.568 602.6C438.902 597.2 437.568 591.3 437.568 584.9C437.568 578.567 438.968 572.733 441.768 567.4C444.635 562.067 448.868 557.8 454.468 554.6C460.068 551.4 466.835 549.8 474.768 549.8C478.968 549.8 482.902 550.367 486.568 551.5C490.302 552.633 493.502 554.2 496.168 556.2L492.568 565.5C490.302 563.833 487.635 562.467 484.568 561.4C481.568 560.333 478.302 559.8 474.768 559.8C469.835 559.8 465.568 560.9 461.968 563.1C458.435 565.3 455.735 568.333 453.868 572.2C452.068 576 451.168 580.267 451.168 585C451.168 589.867 452.035 594.233 453.768 598.1C455.502 601.9 458.068 604.9 461.468 607.1C464.868 609.3 468.968 610.4 473.768 610.4C477.635 610.4 481.235 609.767 484.568 608.5C487.902 607.167 490.835 605.533 493.368 603.6L496.768 612.7C493.902 614.9 490.468 616.733 486.468 618.2C482.468 619.6 478.235 620.3 473.768 620.3ZM568.516 556.8C570.116 556.2 571.416 555.267 572.416 554C573.483 552.733 574.249 551.167 574.716 549.3C575.249 547.367 575.516 545.267 575.516 543H590.216L590.916 544.1C590.383 546.767 589.649 549.3 588.716 551.7C587.783 554.1 586.516 556.267 584.916 558.2C583.316 560.067 581.183 561.667 578.516 563C575.849 564.267 572.516 565.2 568.516 565.8V593.8C568.516 598.733 567.416 603.2 565.216 607.2C563.083 611.133 559.816 614.267 555.416 616.6C551.083 618.867 545.583 620 538.916 620C529.449 620 522.249 617.6 517.316 612.8C512.383 607.933 509.916 601.533 509.916 593.6V547.6H525.016V592.5C525.016 597.767 526.216 601.567 528.616 603.9C531.016 606.167 534.583 607.3 539.316 607.3C542.649 607.3 545.349 606.767 547.416 605.7C549.483 604.567 550.983 602.9 551.916 600.7C552.916 598.433 553.416 595.667 553.416 592.4V547.6H568.516V556.8ZM217.811 740.3C209.945 740.3 203.278 738.7 197.811 735.5C192.411 732.233 188.345 727.933 185.611 722.6C182.945 717.2 181.611 711.3 181.611 704.9C181.611 698.567 183.011 692.733 185.811 687.4C188.678 682.067 192.911 677.8 198.511 674.6C204.111 671.4 210.878 669.8 218.811 669.8C223.011 669.8 226.945 670.367 230.611 671.5C234.345 672.633 237.545 674.2 240.211 676.2L236.611 685.5C234.345 683.833 231.678 682.467 228.611 681.4C225.611 680.333 222.345 679.8 218.811 679.8C213.878 679.8 209.611 680.9 206.011 683.1C202.478 685.3 199.778 688.333 197.911 692.2C196.111 696 195.211 700.267 195.211 705C195.211 709.867 196.078 714.233 197.811 718.1C199.545 721.9 202.111 724.9 205.511 727.1C208.911 729.3 213.011 730.4 217.811 730.4C221.678 730.4 225.278 729.767 228.611 728.5C231.945 727.167 234.878 725.533 237.411 723.6L240.811 732.7C237.945 734.9 234.511 736.733 230.511 738.2C226.511 739.6 222.278 740.3 217.811 740.3ZM285.559 740.4C278.092 740.4 271.726 738.833 266.459 735.7C261.192 732.5 257.192 728.233 254.459 722.9C251.792 717.5 250.459 711.567 250.459 705.1C250.459 698.567 251.792 692.633 254.459 687.3C257.126 681.967 261.092 677.733 266.359 674.6C271.692 671.4 278.092 669.8 285.559 669.8C292.959 669.8 299.292 671.4 304.559 674.6C309.892 677.733 313.892 681.967 316.559 687.3C319.292 692.633 320.659 698.533 320.659 705C320.659 711.533 319.292 717.5 316.559 722.9C313.892 728.233 309.926 732.5 304.659 735.7C299.392 738.833 293.026 740.4 285.559 740.4ZM285.659 730.4C290.126 730.4 293.959 729.3 297.159 727.1C300.426 724.9 302.892 721.9 304.559 718.1C306.292 714.233 307.159 709.867 307.159 705C307.159 700.2 306.292 695.9 304.559 692.1C302.892 688.3 300.426 685.3 297.159 683.1C293.959 680.9 290.126 679.8 285.659 679.8C281.126 679.8 277.226 680.9 273.959 683.1C270.759 685.3 268.326 688.3 266.659 692.1C264.992 695.9 264.159 700.2 264.159 705C264.159 709.867 264.992 714.233 266.659 718.1C268.326 721.9 270.759 724.9 273.959 727.1C277.226 729.3 281.126 730.4 285.659 730.4ZM395.332 671V739L383.232 739.1L348.432 691.1L349.432 714V739H335.832V671H347.932L382.732 718.9L381.732 694.7V671H395.332ZM474.922 671V739L462.822 739.1L428.022 691.1L429.022 714V739H415.422V671H427.522L462.322 718.9L461.322 694.7V671H474.922ZM538.912 729.3V739H495.012V671H536.912V680.7H508.612V698.2H532.912V707.9H508.612V729.3H538.912ZM585.389 740.3C577.523 740.3 570.856 738.7 565.389 735.5C559.989 732.233 555.923 727.933 553.189 722.6C550.523 717.2 549.189 711.3 549.189 704.9C549.189 698.567 550.589 692.733 553.389 687.4C556.256 682.067 560.489 677.8 566.089 674.6C571.689 671.4 578.456 669.8 586.389 669.8C590.589 669.8 594.523 670.367 598.189 671.5C601.923 672.633 605.123 674.2 607.789 676.2L604.189 685.5C601.923 683.833 599.256 682.467 596.189 681.4C593.189 680.333 589.923 679.8 586.389 679.8C581.456 679.8 577.189 680.9 573.589 683.1C570.056 685.3 567.356 688.333 565.489 692.2C563.689 696 562.789 700.267 562.789 705C562.789 709.867 563.656 714.233 565.389 718.1C567.123 721.9 569.689 724.9 573.089 727.1C576.489 729.3 580.589 730.4 585.389 730.4C589.256 730.4 592.856 729.767 596.189 728.5C599.523 727.167 602.456 725.533 604.989 723.6L608.389 732.7C605.523 734.9 602.089 736.733 598.089 738.2C594.089 739.6 589.856 740.3 585.389 740.3ZM670.737 680.8H650.037V739H636.437V680.8H615.737V671H670.737V680.8Z" fill="white"/>
<path d="M306.607 600.6L308.024 600.107L307.674 599.1H306.607V600.6ZM281.407 600.6V599.1H280.341L279.991 600.107L281.407 600.6ZM275.007 619V620.5H276.074L276.424 619.493L275.007 619ZM261.307 619L259.905 618.467L259.132 620.5H261.307V619ZM287.507 550.1V548.6H286.473L286.105 549.567L287.507 550.1ZM300.507 550.1L301.909 549.565L301.54 548.6H300.507V550.1ZM326.807 619V620.5H328.986L328.209 618.465L326.807 619ZM313.007 619L311.591 619.493L311.941 620.5H313.007V619ZM303.207 591V592.5H305.313L304.625 590.51L303.207 591ZM294.007 564.4L295.425 563.91L294.015 559.833L292.591 563.905L294.007 564.4ZM284.707 591L283.291 590.505L282.594 592.5H284.707V591ZM306.607 599.1H281.407V602.1H306.607V599.1ZM279.991 600.107L273.591 618.507L276.424 619.493L282.824 601.093L279.991 600.107ZM275.007 617.5H261.307V620.5H275.007V617.5ZM262.709 619.533L288.909 550.633L286.105 549.567L259.905 618.467L262.709 619.533ZM287.507 551.6H300.507V548.6H287.507V551.6ZM299.106 550.635L325.406 619.535L328.209 618.465L301.909 549.565L299.106 550.635ZM326.807 617.5H313.007V620.5H326.807V617.5ZM314.424 618.507L308.024 600.107L305.191 601.093L311.591 619.493L314.424 618.507ZM304.625 590.51L295.425 563.91L292.59 564.89L301.79 591.49L304.625 590.51ZM292.591 563.905L283.291 590.505L286.123 591.495L295.423 564.895L292.591 563.905ZM284.707 592.5H303.207V589.5H284.707V592.5ZM397.579 551H399.079V549.5H397.579V551ZM397.579 619L397.591 620.5L399.079 620.488V619H397.579ZM385.479 619.1L384.264 619.98L384.718 620.606L385.491 620.6L385.479 619.1ZM350.679 571.1L351.893 570.22L348.962 566.177L349.18 571.165L350.679 571.1ZM351.679 594H353.179V593.967L353.177 593.935L351.679 594ZM351.679 619V620.5H353.179V619H351.679ZM338.079 619H336.579V620.5H338.079V619ZM338.079 551V549.5H336.579V551H338.079ZM350.179 551L351.392 550.118L350.943 549.5H350.179V551ZM384.979 598.9L383.765 599.782L386.682 603.797L386.477 598.838L384.979 598.9ZM383.979 574.7H382.479V574.731L382.48 574.762L383.979 574.7ZM383.979 551V549.5H382.479V551H383.979ZM396.079 551V619H399.079V551H396.079ZM397.566 617.5L385.466 617.6L385.491 620.6L397.591 620.5L397.566 617.5ZM386.693 618.22L351.893 570.22L349.464 571.98L384.264 619.98L386.693 618.22ZM349.18 571.165L350.18 594.065L353.177 593.935L352.177 571.035L349.18 571.165ZM350.179 594V619H353.179V594H350.179ZM351.679 617.5H338.079V620.5H351.679V617.5ZM339.579 619V551H336.579V619H339.579ZM338.079 552.5H350.179V549.5H338.079V552.5ZM348.965 551.882L383.765 599.782L386.192 598.018L351.392 550.118L348.965 551.882ZM386.477 598.838L385.477 574.638L382.48 574.762L383.48 598.962L386.477 598.838ZM385.479 574.7V551H382.479V574.7H385.479ZM383.979 552.5H397.579V549.5H383.979V552.5ZM453.768 615.5L452.992 616.783L453.001 616.789L453.011 616.795L453.768 615.5ZM441.568 602.6L440.223 603.264L440.228 603.274L440.233 603.284L441.568 602.6ZM441.768 567.4L440.447 566.69L440.444 566.696L440.44 566.703L441.768 567.4ZM454.468 554.6L453.724 553.298V553.298L454.468 554.6ZM486.568 551.5L486.125 552.933L486.133 552.935L486.568 551.5ZM496.168 556.2L497.567 556.741L497.977 555.682L497.068 555L496.168 556.2ZM492.568 565.5L491.68 566.708L493.259 567.87L493.967 566.041L492.568 565.5ZM484.568 561.4L484.066 562.813L484.076 562.817L484.568 561.4ZM461.968 563.1L461.186 561.82L461.176 561.827L461.968 563.1ZM453.868 572.2L452.517 571.548L452.513 571.558L453.868 572.2ZM453.768 598.1L452.4 598.714L452.404 598.723L453.768 598.1ZM461.468 607.1L460.653 608.359L461.468 607.1ZM484.568 608.5L485.101 609.902L485.113 609.898L485.125 609.893L484.568 608.5ZM493.368 603.6L494.773 603.075L494.066 601.181L492.458 602.408L493.368 603.6ZM496.768 612.7L497.682 613.89L498.562 613.214L498.173 612.175L496.768 612.7ZM486.468 618.2L486.964 619.616L486.974 619.612L486.985 619.608L486.468 618.2ZM473.768 618.8C466.104 618.8 459.713 617.242 454.526 614.205L453.011 616.795C458.757 620.158 465.699 621.8 473.768 621.8V618.8ZM454.545 614.217C449.37 611.086 445.503 606.988 442.903 601.916L440.233 603.284C443.101 608.879 447.367 613.381 452.992 616.783L454.545 614.217ZM442.913 601.936C440.355 596.755 439.068 591.084 439.068 584.9H436.068C436.068 591.516 437.448 597.645 440.223 603.264L442.913 601.936ZM439.068 584.9C439.068 578.797 440.415 573.204 443.096 568.097L440.44 566.703C437.522 572.262 436.068 578.337 436.068 584.9H439.068ZM443.09 568.11C445.814 563.041 449.84 558.972 455.213 555.902L453.724 553.298C447.897 556.628 443.456 561.093 440.447 566.69L443.09 568.11ZM455.213 555.902C460.539 552.859 467.036 551.3 474.768 551.3V548.3C466.634 548.3 459.597 549.941 453.724 553.298L455.213 555.902ZM474.768 551.3C478.832 551.3 482.615 551.848 486.125 552.933L487.011 550.067C483.188 548.885 479.104 548.3 474.768 548.3V551.3ZM486.133 552.935C489.727 554.026 492.763 555.521 495.268 557.4L497.068 555C494.24 552.879 490.877 551.24 487.004 550.065L486.133 552.935ZM494.77 555.659L491.169 564.959L493.967 566.041L497.567 556.741L494.77 555.659ZM493.457 564.292C491.053 562.524 488.248 561.092 485.061 559.983L484.076 562.817C487.022 563.842 489.551 565.143 491.68 566.708L493.457 564.292ZM485.071 559.987C481.893 558.857 478.454 558.3 474.768 558.3V561.3C478.149 561.3 481.244 561.81 484.066 562.813L485.071 559.987ZM474.768 558.3C469.606 558.3 465.059 559.453 461.186 561.82L462.751 564.38C466.078 562.347 470.064 561.3 474.768 561.3V558.3ZM461.176 561.827C457.393 564.182 454.504 567.434 452.518 571.548L455.219 572.852C456.967 569.233 459.477 566.418 462.761 564.373L461.176 561.827ZM452.513 571.558C450.606 575.582 449.668 580.073 449.668 585H452.668C452.668 580.461 453.53 576.418 455.224 572.842L452.513 571.558ZM449.668 585C449.668 590.047 450.568 594.627 452.4 598.714L455.137 597.486C453.502 593.839 452.668 589.686 452.668 585H449.668ZM452.404 598.723C454.252 602.774 457.005 605.999 460.653 608.359L462.283 605.841C459.131 603.801 456.752 601.026 455.133 597.477L452.404 598.723ZM460.653 608.359C464.338 610.744 468.734 611.9 473.768 611.9V608.9C469.203 608.9 465.399 607.856 462.283 605.841L460.653 608.359ZM473.768 611.9C477.802 611.9 481.584 611.239 485.101 609.902L484.036 607.098C480.886 608.295 477.468 608.9 473.768 608.9V611.9ZM485.125 609.893C488.569 608.515 491.624 606.818 494.278 604.792L492.458 602.408C490.046 604.249 487.234 605.818 484.011 607.107L485.125 609.893ZM491.963 604.125L495.363 613.225L498.173 612.175L494.773 603.075L491.963 604.125ZM495.855 611.51C493.128 613.603 489.834 615.368 485.952 616.792L486.985 619.608C491.103 618.098 494.675 616.197 497.682 613.89L495.855 611.51ZM485.973 616.784C482.141 618.126 478.075 618.8 473.768 618.8V621.8C478.395 621.8 482.796 621.074 486.964 619.616L485.973 616.784ZM568.516 556.8H567.016V558.964L569.043 558.204L568.516 556.8ZM572.416 554L571.269 553.034L571.253 553.052L571.239 553.071L572.416 554ZM574.716 549.3L573.27 548.901L573.265 548.919L573.261 548.936L574.716 549.3ZM575.516 543V541.5H574.016V543H575.516ZM590.216 543L591.482 542.195L591.039 541.5H590.216V543ZM590.916 544.1L592.387 544.394L592.505 543.803L592.182 543.295L590.916 544.1ZM584.916 558.2L586.055 559.176L586.063 559.166L586.072 559.156L584.916 558.2ZM578.516 563L579.16 564.355L579.173 564.348L579.187 564.342L578.516 563ZM568.516 565.8L568.294 564.317L567.016 564.508V565.8H568.516ZM565.216 607.2L563.902 606.477L563.897 606.485L565.216 607.2ZM555.416 616.6L556.111 617.929L556.119 617.925L555.416 616.6ZM517.316 612.8L516.263 613.868L516.27 613.875L517.316 612.8ZM509.916 547.6V546.1H508.416V547.6H509.916ZM525.016 547.6H526.516V546.1H525.016V547.6ZM528.616 603.9L527.57 604.975L527.578 604.983L527.586 604.991L528.616 603.9ZM547.416 605.7L548.104 607.033L548.121 607.024L548.137 607.015L547.416 605.7ZM551.916 600.7L550.544 600.095L550.539 600.104L550.535 600.114L551.916 600.7ZM553.416 547.6V546.1H551.916V547.6H553.416ZM568.516 547.6H570.016V546.1H568.516V547.6ZM569.043 558.204C570.883 557.514 572.414 556.424 573.593 554.929L571.239 553.071C570.418 554.11 569.349 554.886 567.989 555.396L569.043 558.204ZM573.563 554.966C574.799 553.499 575.658 551.716 576.171 549.664L573.261 548.936C572.841 550.617 572.166 551.968 571.269 553.034L573.563 554.966ZM576.162 549.699C576.736 547.62 577.016 545.384 577.016 543H574.016C574.016 545.149 573.763 547.113 573.27 548.901L576.162 549.699ZM575.516 544.5H590.216V541.5H575.516V544.5ZM588.951 543.805L589.651 544.905L592.182 543.295L591.482 542.195L588.951 543.805ZM589.445 543.806C588.928 546.392 588.218 548.842 587.318 551.156L590.114 552.244C591.081 549.758 591.837 547.141 592.387 544.394L589.445 543.806ZM587.318 551.156C586.441 553.411 585.255 555.437 583.76 557.244L586.072 559.156C587.777 557.096 589.124 554.789 590.114 552.244L587.318 551.156ZM583.777 557.224C582.332 558.91 580.37 560.396 577.845 561.658L579.187 564.342C581.995 562.937 584.3 561.223 586.055 559.176L583.777 557.224ZM577.872 561.645C575.378 562.83 572.198 563.731 568.294 564.317L568.739 567.283C572.835 566.669 576.321 565.703 579.16 564.355L577.872 561.645ZM567.016 565.8V593.8H570.016V565.8H567.016ZM567.016 593.8C567.016 598.502 565.97 602.716 563.902 606.477L566.53 607.923C568.862 603.684 570.016 598.965 570.016 593.8H567.016ZM563.897 606.485C561.921 610.13 558.883 613.064 554.713 615.275L556.119 617.925C560.749 615.47 564.245 612.137 566.535 607.915L563.897 606.485ZM554.721 615.271C550.666 617.392 545.424 618.5 538.916 618.5V621.5C545.741 621.5 551.5 620.341 556.111 617.929L554.721 615.271ZM538.916 618.5C529.691 618.5 522.924 616.164 518.362 611.725L516.27 613.875C521.575 619.036 529.208 621.5 538.916 621.5V618.5ZM518.369 611.732C513.764 607.189 511.416 601.195 511.416 593.6H508.416C508.416 601.871 511.001 608.678 516.263 613.868L518.369 611.732ZM511.416 593.6V547.6H508.416V593.6H511.416ZM509.916 549.1H525.016V546.1H509.916V549.1ZM523.516 547.6V592.5H526.516V547.6H523.516ZM523.516 592.5C523.516 597.946 524.75 602.234 527.57 604.975L529.662 602.825C527.682 600.9 526.516 597.588 526.516 592.5H523.516ZM527.586 604.991C530.365 607.615 534.365 608.8 539.316 608.8V605.8C534.8 605.8 531.667 604.718 529.646 602.809L527.586 604.991ZM539.316 608.8C542.792 608.8 545.753 608.247 548.104 607.033L546.728 604.367C544.946 605.287 542.507 605.8 539.316 605.8V608.8ZM548.137 607.015C550.504 605.717 552.234 603.791 553.297 601.286L550.535 600.114C549.731 602.009 548.461 603.416 546.695 604.385L548.137 607.015ZM553.288 601.305C554.395 598.798 554.916 595.812 554.916 592.4H551.916C551.916 595.521 551.437 598.069 550.544 600.095L553.288 601.305ZM554.916 592.4V547.6H551.916V592.4H554.916ZM553.416 549.1H568.516V546.1H553.416V549.1ZM567.016 547.6V556.8H570.016V547.6H567.016ZM197.811 735.5L197.035 736.783L197.044 736.789L197.054 736.795L197.811 735.5ZM185.611 722.6L184.266 723.264L184.271 723.274L184.276 723.284L185.611 722.6ZM185.811 687.4L184.49 686.69L184.487 686.696L184.483 686.703L185.811 687.4ZM198.511 674.6L197.767 673.298L198.511 674.6ZM230.611 671.5L230.168 672.933L230.176 672.935L230.611 671.5ZM240.211 676.2L241.61 676.741L242.02 675.682L241.111 675L240.211 676.2ZM236.611 685.5L235.723 686.708L237.302 687.87L238.01 686.041L236.611 685.5ZM228.611 681.4L228.109 682.813L228.119 682.817L228.611 681.4ZM206.011 683.1L205.229 681.82L205.218 681.827L206.011 683.1ZM197.911 692.2L196.56 691.548L196.556 691.558L197.911 692.2ZM197.811 718.1L196.443 718.714L196.447 718.723L197.811 718.1ZM205.511 727.1L204.696 728.359L205.511 727.1ZM228.611 728.5L229.144 729.902L229.156 729.898L229.168 729.893L228.611 728.5ZM237.411 723.6L238.816 723.075L238.109 721.181L236.501 722.408L237.411 723.6ZM240.811 732.7L241.725 733.89L242.605 733.214L242.216 732.175L240.811 732.7ZM230.511 738.2L231.007 739.616L231.017 739.612L231.028 739.608L230.511 738.2ZM217.811 738.8C210.147 738.8 203.756 737.242 198.569 734.205L197.054 736.795C202.8 740.158 209.742 741.8 217.811 741.8V738.8ZM198.588 734.217C193.413 731.086 189.546 726.988 186.946 721.916L184.276 723.284C187.144 728.879 191.41 733.381 197.035 736.783L198.588 734.217ZM186.956 721.936C184.398 716.755 183.111 711.084 183.111 704.9H180.111C180.111 711.516 181.491 717.645 184.266 723.264L186.956 721.936ZM183.111 704.9C183.111 698.797 184.458 693.204 187.139 688.097L184.483 686.703C181.564 692.262 180.111 698.337 180.111 704.9H183.111ZM187.133 688.11C189.857 683.041 193.883 678.972 199.256 675.902L197.767 673.298C191.94 676.628 187.499 681.093 184.49 686.69L187.133 688.11ZM199.256 675.902C204.582 672.859 211.079 671.3 218.811 671.3V668.3C210.677 668.3 203.64 669.941 197.767 673.298L199.256 675.902ZM218.811 671.3C222.875 671.3 226.658 671.848 230.168 672.933L231.054 670.067C227.231 668.885 223.147 668.3 218.811 668.3V671.3ZM230.176 672.935C233.77 674.026 236.806 675.521 239.311 677.4L241.111 675C238.283 672.879 234.92 671.24 231.047 670.065L230.176 672.935ZM238.812 675.659L235.212 684.959L238.01 686.041L241.61 676.741L238.812 675.659ZM237.5 684.292C235.096 682.524 232.291 681.092 229.104 679.983L228.119 682.817C231.065 683.842 233.594 685.143 235.723 686.708L237.5 684.292ZM229.114 679.987C225.936 678.857 222.497 678.3 218.811 678.3V681.3C222.192 681.3 225.287 681.81 228.109 682.813L229.114 679.987ZM218.811 678.3C213.649 678.3 209.102 679.453 205.229 681.82L206.794 684.38C210.121 682.347 214.107 681.3 218.811 681.3V678.3ZM205.218 681.827C201.436 684.182 198.547 687.434 196.561 691.548L199.262 692.852C201.009 689.233 203.52 686.418 206.804 684.373L205.218 681.827ZM196.556 691.558C194.649 695.582 193.711 700.073 193.711 705H196.711C196.711 700.461 197.573 696.418 199.267 692.842L196.556 691.558ZM193.711 705C193.711 710.047 194.611 714.627 196.443 718.714L199.18 717.486C197.545 713.839 196.711 709.686 196.711 705H193.711ZM196.447 718.723C198.295 722.774 201.048 725.999 204.696 728.359L206.326 725.841C203.174 723.801 200.795 721.026 199.176 717.477L196.447 718.723ZM204.696 728.359C208.381 730.744 212.777 731.9 217.811 731.9V728.9C213.246 728.9 209.441 727.856 206.326 725.841L204.696 728.359ZM217.811 731.9C221.845 731.9 225.627 731.239 229.144 729.902L228.079 727.098C224.929 728.295 221.511 728.9 217.811 728.9V731.9ZM229.168 729.893C232.612 728.515 235.667 726.818 238.321 724.792L236.501 722.408C234.089 724.249 231.277 725.818 228.054 727.107L229.168 729.893ZM236.006 724.125L239.406 733.225L242.216 732.175L238.816 723.075L236.006 724.125ZM239.898 731.51C237.171 733.603 233.877 735.368 229.995 736.792L231.028 739.608C235.145 738.098 238.718 736.197 241.725 733.89L239.898 731.51ZM230.016 736.784C226.184 738.126 222.118 738.8 217.811 738.8V741.8C222.438 741.8 226.839 741.074 231.007 739.616L230.016 736.784ZM266.459 735.7L265.68 736.982L265.692 736.989L266.459 735.7ZM254.459 722.9L253.114 723.564L253.119 723.574L253.124 723.584L254.459 722.9ZM254.459 687.3L253.117 686.629L254.459 687.3ZM266.359 674.6L267.126 675.889L267.131 675.886L266.359 674.6ZM304.559 674.6L303.78 675.882L303.79 675.888L303.799 675.893L304.559 674.6ZM316.559 687.3L315.217 687.971L315.221 687.977L315.224 687.984L316.559 687.3ZM316.559 722.9L315.221 722.223L315.217 722.229L316.559 722.9ZM304.659 735.7L305.426 736.989L305.438 736.982L304.659 735.7ZM297.159 727.1L296.321 725.856L296.315 725.86L296.309 725.864L297.159 727.1ZM304.559 718.1L303.19 717.486L303.185 717.498L304.559 718.1ZM304.559 692.1L303.185 692.702L303.19 692.713L303.194 692.723L304.559 692.1ZM297.159 683.1L296.309 684.336L296.315 684.34L296.321 684.344L297.159 683.1ZM273.959 683.1L273.121 681.856L273.115 681.86L273.109 681.864L273.959 683.1ZM266.659 692.1L268.033 692.702L266.659 692.1ZM266.659 718.1L265.281 718.694L265.285 718.702L266.659 718.1ZM273.959 727.1L273.109 728.336L273.115 728.34L273.121 728.344L273.959 727.1ZM285.559 738.9C278.303 738.9 272.215 737.379 267.226 734.411L265.692 736.989C271.237 740.288 277.881 741.9 285.559 741.9V738.9ZM267.238 734.418C262.201 731.358 258.397 727.295 255.794 722.216L253.124 723.584C255.988 729.172 260.183 733.642 265.68 736.982L267.238 734.418ZM255.804 722.236C253.247 717.057 251.959 711.354 251.959 705.1H248.959C248.959 711.78 250.338 717.943 253.114 723.564L255.804 722.236ZM251.959 705.1C251.959 698.777 253.248 693.077 255.801 687.971L253.117 686.629C250.337 692.19 248.959 698.356 248.959 705.1H251.959ZM255.801 687.971C258.335 682.902 262.099 678.88 267.126 675.889L265.592 673.311C260.086 676.587 255.916 681.032 253.117 686.629L255.801 687.971ZM267.131 675.886C272.188 672.852 278.309 671.3 285.559 671.3V668.3C277.875 668.3 271.197 669.948 265.587 673.314L267.131 675.886ZM285.559 671.3C292.74 671.3 298.791 672.851 303.78 675.882L305.338 673.318C299.793 669.949 293.178 668.3 285.559 668.3V671.3ZM303.799 675.893C308.892 678.886 312.685 682.907 315.217 687.971L317.901 686.629C315.099 681.026 310.892 676.581 305.319 673.307L303.799 675.893ZM315.224 687.984C317.84 693.089 319.159 698.752 319.159 705H322.159C322.159 698.315 320.744 692.177 317.894 686.616L315.224 687.984ZM319.159 705C319.159 711.317 317.839 717.049 315.221 722.223L317.897 723.577C320.745 717.951 322.159 711.75 322.159 705H319.159ZM315.217 722.229C312.681 727.301 308.914 731.36 303.88 734.418L305.438 736.982C310.937 733.64 315.103 729.166 317.901 723.571L315.217 722.229ZM303.892 734.411C298.903 737.379 292.815 738.9 285.559 738.9V741.9C293.237 741.9 299.881 740.288 305.426 736.989L303.892 734.411ZM285.659 731.9C290.382 731.9 294.523 730.733 298.009 728.336L296.309 725.864C293.395 727.867 289.869 728.9 285.659 728.9V731.9ZM297.997 728.344C301.512 725.977 304.158 722.748 305.933 718.702L303.185 717.498C301.626 721.052 299.339 723.823 296.321 725.856L297.997 728.344ZM305.928 718.714C307.76 714.627 308.659 710.047 308.659 705H305.659C305.659 709.686 304.825 713.839 303.19 717.486L305.928 718.714ZM308.659 705C308.659 700.017 307.759 695.5 305.924 691.477L303.194 692.723C304.826 696.3 305.659 700.383 305.659 705H308.659ZM305.933 691.498C304.158 687.452 301.512 684.223 297.997 681.856L296.321 684.344C299.339 686.377 301.626 689.148 303.185 692.702L305.933 691.498ZM298.009 681.864C294.523 679.467 290.382 678.3 285.659 678.3V681.3C289.869 681.3 293.395 682.333 296.309 684.336L298.009 681.864ZM285.659 678.3C280.874 678.3 276.671 679.465 273.121 681.856L274.797 684.344C277.78 682.335 281.378 681.3 285.659 681.3V678.3ZM273.109 681.864C269.663 684.233 267.056 687.46 265.285 691.498L268.033 692.702C269.595 689.14 271.855 686.367 274.809 684.336L273.109 681.864ZM265.285 691.498C263.523 695.515 262.659 700.025 262.659 705H265.659C265.659 700.375 266.461 696.285 268.033 692.702L265.285 691.498ZM262.659 705C262.659 710.039 263.522 714.613 265.281 718.694L268.036 717.506C266.462 713.854 265.659 709.694 265.659 705H262.659ZM265.285 718.702C267.056 722.74 269.663 725.967 273.109 728.336L274.809 725.864C271.855 723.833 269.595 721.06 268.033 717.498L265.285 718.702ZM273.121 728.344C276.671 730.735 280.874 731.9 285.659 731.9V728.9C281.378 728.9 277.78 727.865 274.797 725.856L273.121 728.344ZM395.332 671H396.832V669.5H395.332V671ZM395.332 739L395.345 740.5L396.832 740.488V739H395.332ZM383.232 739.1L382.018 739.98L382.472 740.606L383.245 740.6L383.232 739.1ZM348.432 691.1L349.647 690.22L346.716 686.177L346.934 691.165L348.432 691.1ZM349.432 714H350.932V713.967L350.931 713.935L349.432 714ZM349.432 739V740.5H350.932V739H349.432ZM335.832 739H334.332V740.5H335.832V739ZM335.832 671V669.5H334.332V671H335.832ZM347.932 671L349.146 670.118L348.697 669.5H347.932V671ZM382.732 718.9L381.519 719.782L384.436 723.797L384.231 718.838L382.732 718.9ZM381.732 694.7H380.232V694.731L380.234 694.762L381.732 694.7ZM381.732 671V669.5H380.232V671H381.732ZM393.832 671V739H396.832V671H393.832ZM395.32 737.5L383.22 737.6L383.245 740.6L395.345 740.5L395.32 737.5ZM384.447 738.22L349.647 690.22L347.218 691.98L382.018 739.98L384.447 738.22ZM346.934 691.165L347.934 714.065L350.931 713.935L349.931 691.035L346.934 691.165ZM347.932 714V739H350.932V714H347.932ZM349.432 737.5H335.832V740.5H349.432V737.5ZM337.332 739V671H334.332V739H337.332ZM335.832 672.5H347.932V669.5H335.832V672.5ZM346.719 671.882L381.519 719.782L383.946 718.018L349.146 670.118L346.719 671.882ZM384.231 718.838L383.231 694.638L380.234 694.762L381.234 718.962L384.231 718.838ZM383.232 694.7V671H380.232V694.7H383.232ZM381.732 672.5H395.332V669.5H381.732V672.5ZM474.922 671H476.422V669.5H474.922V671ZM474.922 739L474.935 740.5L476.422 740.488V739H474.922ZM462.822 739.1L461.608 739.98L462.062 740.606L462.835 740.6L462.822 739.1ZM428.022 691.1L429.237 690.22L426.306 686.177L426.524 691.165L428.022 691.1ZM429.022 714H430.522V713.967L430.521 713.935L429.022 714ZM429.022 739V740.5H430.522V739H429.022ZM415.422 739H413.922V740.5H415.422V739ZM415.422 671V669.5H413.922V671H415.422ZM427.522 671L428.736 670.118L428.287 669.5H427.522V671ZM462.322 718.9L461.109 719.782L464.026 723.797L463.821 718.838L462.322 718.9ZM461.322 694.7H459.822V694.731L459.824 694.762L461.322 694.7ZM461.322 671V669.5H459.822V671H461.322ZM473.422 671V739H476.422V671H473.422ZM474.91 737.5L462.81 737.6L462.835 740.6L474.935 740.5L474.91 737.5ZM464.037 738.22L429.237 690.22L426.808 691.98L461.608 739.98L464.037 738.22ZM426.524 691.165L427.524 714.065L430.521 713.935L429.521 691.035L426.524 691.165ZM427.522 714V739H430.522V714H427.522ZM429.022 737.5H415.422V740.5H429.022V737.5ZM416.922 739V671H413.922V739H416.922ZM415.422 672.5H427.522V669.5H415.422V672.5ZM426.309 671.882L461.109 719.782L463.536 718.018L428.736 670.118L426.309 671.882ZM463.821 718.838L462.821 694.638L459.824 694.762L460.824 718.962L463.821 718.838ZM462.822 694.7V671H459.822V694.7H462.822ZM461.322 672.5H474.922V669.5H461.322V672.5ZM538.912 729.3H540.412V727.8H538.912V729.3ZM538.912 739V740.5H540.412V739H538.912ZM495.012 739H493.512V740.5H495.012V739ZM495.012 671V669.5H493.512V671H495.012ZM536.912 671H538.412V669.5H536.912V671ZM536.912 680.7V682.2H538.412V680.7H536.912ZM508.612 680.7V679.2H507.112V680.7H508.612ZM508.612 698.2H507.112V699.7H508.612V698.2ZM532.912 698.2H534.412V696.7H532.912V698.2ZM532.912 707.9V709.4H534.412V707.9H532.912ZM508.612 707.9V706.4H507.112V707.9H508.612ZM508.612 729.3H507.112V730.8H508.612V729.3ZM537.412 729.3V739H540.412V729.3H537.412ZM538.912 737.5H495.012V740.5H538.912V737.5ZM496.512 739V671H493.512V739H496.512ZM495.012 672.5H536.912V669.5H495.012V672.5ZM535.412 671V680.7H538.412V671H535.412ZM536.912 679.2H508.612V682.2H536.912V679.2ZM507.112 680.7V698.2H510.112V680.7H507.112ZM508.612 699.7H532.912V696.7H508.612V699.7ZM531.412 698.2V707.9H534.412V698.2H531.412ZM532.912 706.4H508.612V709.4H532.912V706.4ZM507.112 707.9V729.3H510.112V707.9H507.112ZM508.612 730.8H538.912V727.8H508.612V730.8ZM565.389 735.5L564.613 736.783L564.622 736.789L564.632 736.795L565.389 735.5ZM553.189 722.6L551.845 723.264L551.849 723.274L551.855 723.284L553.189 722.6ZM553.389 687.4L552.068 686.69L552.065 686.696L552.061 686.703L553.389 687.4ZM566.089 674.6L565.345 673.298L566.089 674.6ZM598.189 671.5L597.746 672.933L597.754 672.935L598.189 671.5ZM607.789 676.2L609.188 676.741L609.599 675.682L608.689 675L607.789 676.2ZM604.189 685.5L603.301 686.708L604.88 687.87L605.588 686.041L604.189 685.5ZM596.189 681.4L595.687 682.813L595.697 682.817L596.189 681.4ZM573.589 683.1L572.807 681.82L572.797 681.827L573.589 683.1ZM565.489 692.2L564.139 691.548L564.134 691.558L565.489 692.2ZM565.389 718.1L564.021 718.714L564.025 718.723L565.389 718.1ZM573.089 727.1L572.275 728.359L573.089 727.1ZM596.189 728.5L596.722 729.902L596.734 729.898L596.747 729.893L596.189 728.5ZM604.989 723.6L606.395 723.075L605.687 721.181L604.079 722.408L604.989 723.6ZM608.389 732.7L609.303 733.89L610.183 733.214L609.795 732.175L608.389 732.7ZM598.089 738.2L598.585 739.616L598.595 739.612L598.606 739.608L598.089 738.2ZM585.389 738.8C577.725 738.8 571.335 737.242 566.147 734.205L564.632 736.795C570.378 740.158 577.32 741.8 585.389 741.8V738.8ZM566.166 734.217C560.991 731.086 557.124 726.988 554.524 721.916L551.855 723.284C554.722 728.879 558.988 733.381 564.613 736.783L566.166 734.217ZM554.534 721.936C551.976 716.755 550.689 711.084 550.689 704.9H547.689C547.689 711.516 549.069 717.645 551.845 723.264L554.534 721.936ZM550.689 704.9C550.689 698.797 552.036 693.204 554.718 688.097L552.061 686.703C549.143 692.262 547.689 698.337 547.689 704.9H550.689ZM554.711 688.11C557.436 683.041 561.461 678.972 566.834 675.902L565.345 673.298C559.518 676.628 555.077 681.093 552.068 686.69L554.711 688.11ZM566.834 675.902C572.16 672.859 578.658 671.3 586.389 671.3V668.3C578.255 668.3 571.219 669.941 565.345 673.298L566.834 675.902ZM586.389 671.3C590.453 671.3 594.236 671.848 597.746 672.933L598.632 670.067C594.809 668.885 590.726 668.3 586.389 668.3V671.3ZM597.754 672.935C601.348 674.026 604.384 675.521 606.889 677.4L608.689 675C605.861 672.879 602.498 671.24 598.625 670.065L597.754 672.935ZM606.391 675.659L602.791 684.959L605.588 686.041L609.188 676.741L606.391 675.659ZM605.078 684.292C602.674 682.524 599.869 681.092 596.682 679.983L595.697 682.817C598.643 683.842 601.172 685.143 603.301 686.708L605.078 684.292ZM596.692 679.987C593.514 678.857 590.075 678.3 586.389 678.3V681.3C589.77 681.3 592.865 681.81 595.687 682.813L596.692 679.987ZM586.389 678.3C581.228 678.3 576.68 679.453 572.807 681.82L574.372 684.38C577.699 682.347 581.685 681.3 586.389 681.3V678.3ZM572.797 681.827C569.014 684.182 566.125 687.434 564.139 691.548L566.84 692.852C568.588 689.233 571.098 686.418 574.382 684.373L572.797 681.827ZM564.134 691.558C562.227 695.582 561.289 700.073 561.289 705H564.289C564.289 700.461 565.151 696.418 566.845 692.842L564.134 691.558ZM561.289 705C561.289 710.047 562.189 714.627 564.021 718.714L566.758 717.486C565.123 713.839 564.289 709.686 564.289 705H561.289ZM564.025 718.723C565.873 722.774 568.626 725.999 572.275 728.359L573.904 725.841C570.752 723.801 568.373 721.026 566.754 717.477L564.025 718.723ZM572.275 728.359C575.959 730.744 580.355 731.9 585.389 731.9V728.9C580.824 728.9 577.02 727.856 573.904 725.841L572.275 728.359ZM585.389 731.9C589.423 731.9 593.205 731.239 596.722 729.902L595.657 727.098C592.507 728.295 589.089 728.9 585.389 728.9V731.9ZM596.747 729.893C600.19 728.515 603.245 726.818 605.899 724.792L604.079 722.408C601.667 724.249 598.855 725.818 595.632 727.107L596.747 729.893ZM603.584 724.125L606.984 733.225L609.795 732.175L606.395 723.075L603.584 724.125ZM607.476 731.51C604.749 733.603 601.455 735.368 597.573 736.792L598.606 739.608C602.724 738.098 606.296 736.197 609.303 733.89L607.476 731.51ZM597.594 736.784C593.762 738.126 589.697 738.8 585.389 738.8V741.8C590.016 741.8 594.417 741.074 598.585 739.616L597.594 736.784ZM670.737 680.8V682.3H672.237V680.8H670.737ZM650.037 680.8V679.3H648.537V680.8H650.037ZM650.037 739V740.5H651.537V739H650.037ZM636.437 739H634.937V740.5H636.437V739ZM636.437 680.8H637.937V679.3H636.437V680.8ZM615.737 680.8H614.237V682.3H615.737V680.8ZM615.737 671V669.5H614.237V671H615.737ZM670.737 671H672.237V669.5H670.737V671ZM670.737 679.3H650.037V682.3H670.737V679.3ZM648.537 680.8V739H651.537V680.8H648.537ZM650.037 737.5H636.437V740.5H650.037V737.5ZM637.937 739V680.8H634.937V739H637.937ZM636.437 679.3H615.737V682.3H636.437V679.3ZM617.237 680.8V671H614.237V680.8H617.237ZM615.737 672.5H670.737V669.5H615.737V672.5ZM669.237 671V680.8H672.237V671H669.237Z" fill="white" mask="url(#path-2-outside-1_2032_38)"/>
</g>
<g filter="url(#filter1_d_2032_38)">
<path d="M415.238 105.183C412.267 105.808 407.655 107.293 405.075 108.544C398.118 111.905 229.889 232.835 227.466 236.197C223.557 241.747 224.339 249.251 229.499 254.958C232.782 258.632 236.065 260.195 240.521 260.195C245.133 260.195 247.791 258.866 258.579 251.049C295.477 224.393 415.316 138.718 417.426 137.467C421.57 135.044 426.495 134.653 430.56 136.451C432.436 137.311 471.679 165.061 517.644 198.049C563.688 231.038 602.384 258.554 603.791 259.101C606.761 260.352 611.686 260.508 614.501 259.414C617.862 258.163 622.631 253.238 624.038 249.564C625.679 245.186 625.21 240.027 622.709 236.353C621.458 234.477 598.866 217.827 553.604 185.386C516.628 158.886 478.323 131.37 468.395 124.256C448.383 109.873 443.067 106.824 434.234 105.104C426.885 103.619 422.43 103.619 415.238 105.183Z" fill="white"/>
</g>
<g filter="url(#filter2_d_2032_38)">
<path d="M416.567 182.884C406.56 184.604 403.668 186.48 337.846 234.008C303.059 259.179 272.572 281.614 270.227 283.881C264.989 289.04 260.611 296.232 258.266 303.58L256.546 309.052V387.223V465.394L258.735 471.647C263.035 483.92 271.008 493.066 282.343 498.694C293.288 504.088 293.913 504.166 349.025 503.932C394.991 503.697 398.196 503.619 400.697 502.29C403.824 500.571 406.873 497.444 408.124 494.708C408.671 493.379 409.14 481.184 409.375 456.639L409.766 420.602L412.111 417.24C418.599 408.094 431.419 408.094 437.908 417.24L440.253 420.602L440.644 456.639C440.878 481.184 441.347 493.379 441.895 494.708C443.145 497.444 446.194 500.571 449.321 502.29C451.823 503.619 454.871 503.697 503.182 503.697C554.307 503.697 554.386 503.697 560.014 501.899C575.023 497.209 586.124 486.422 591.283 471.647L593.472 465.394V387.223V309.052L591.752 303.58C589.563 296.623 585.186 289.197 580.339 284.35C578.307 282.318 557.747 266.918 534.608 250.268C511.547 233.617 482.935 212.98 471.131 204.46C448.696 188.2 445.412 186.168 438.299 184.057C432.983 182.493 422.117 181.868 416.567 182.884ZM430.872 214.778C432.592 215.56 461.907 236.353 495.99 260.977C543.285 295.059 558.529 306.472 560.092 308.896L562.203 312.101L562.437 385.581C562.672 467.817 562.985 463.127 557.122 468.442C555.48 469.928 552.744 471.491 551.102 471.96C549.226 472.507 534.451 472.82 510.061 472.82H471.913V447.18C471.913 418.257 471.444 414.426 466.754 404.811C463.158 397.541 454.324 388.395 447.132 384.643C440.878 381.36 431.654 379.015 425.009 379.015C418.365 379.015 409.14 381.36 402.886 384.643C395.694 388.395 386.861 397.541 383.265 404.811C378.574 414.426 378.105 418.257 378.105 447.18V472.82H340.035C315.567 472.82 300.792 472.507 298.916 471.96C297.275 471.491 294.538 469.928 292.897 468.442C287.034 463.127 287.347 467.817 287.581 385.581L287.816 312.101L289.848 308.974C291.49 306.551 306.968 294.981 353.559 261.29C387.486 236.822 416.801 216.029 418.677 215.013C422.82 212.902 426.651 212.824 430.872 214.778Z" fill="white"/>
</g>
<defs>
<filter id="filter0_d_2032_38" x="181.611" y="543" width="509.126" height="217.4" filterUnits="userSpaceOnUse" color-interpolation-filters="sRGB">
<feFlood flood-opacity="0" result="BackgroundImageFix"/>
<feColorMatrix in="SourceAlpha" type="matrix" values="0 0 0 0 0 0 0 0 0 0 0 0 0 0 0 0 0 0 127 0" result="hardAlpha"/>
<feOffset dx="10" dy="10"/>
<feGaussianBlur stdDeviation="5"/>
<feComposite in2="hardAlpha" operator="out"/>
<feColorMatrix type="matrix" values="0 0 0 0 0 0 0 0 0 0 0 0 0 0 0 0 0 0 0.5 0"/>
<feBlend mode="normal" in2="BackgroundImageFix" result="effect1_dropShadow_2032_38"/>
<feBlend mode="normal" in="SourceGraphic" in2="effect1_dropShadow_2032_38" result="shape"/>
</filter>
<filter id="filter1_d_2032_38" x="225" y="104" width="425" height="181.195" filterUnits="userSpaceOnUse" color-interpolation-filters="sRGB">
<feFlood flood-opacity="0" result="BackgroundImageFix"/>
<feColorMatrix in="SourceAlpha" type="matrix" values="0 0 0 0 0 0 0 0 0 0 0 0 0 0 0 0 0 0 127 0" result="hardAlpha"/>
<feOffset dx="15" dy="15"/>
<feGaussianBlur stdDeviation="5"/>
<feComposite in2="hardAlpha" operator="out"/>
<feColorMatrix type="matrix" values="0 0 0 0 0 0 0 0 0 0 0 0 0 0 0 0 0 0 0.5 0"/>
<feBlend mode="normal" in2="BackgroundImageFix" result="effect1_dropShadow_2032_38"/>
<feBlend mode="normal" in="SourceGraphic" in2="effect1_dropShadow_2032_38" result="shape"/>
</filter>
<filter id="filter2_d_2032_38" x="256.546" y="182.389" width="361.926" height="346.611" filterUnits="userSpaceOnUse" color-interpolation-filters="sRGB">
<feFlood flood-opacity="0" result="BackgroundImageFix"/>
<feColorMatrix in="SourceAlpha" type="matrix" values="0 0 0 0 0 0 0 0 0 0 0 0 0 0 0 0 0 0 127 0" result="hardAlpha"/>
<feOffset dx="15" dy="15"/>
<feGaussianBlur stdDeviation="5"/>
<feComposite in2="hardAlpha" operator="out"/>
<feColorMatrix type="matrix" values="0 0 0 0 0 0 0 0 0 0 0 0 0 0 0 0 0 0 0.5 0"/>
<feBlend mode="normal" in2="BackgroundImageFix" result="effect1_dropShadow_2032_38"/>
<feBlend mode="normal" in="SourceGraphic" in2="effect1_dropShadow_2032_38" result="shape"/>
</filter>
</defs>
</svg>
