<svg width="647" height="657" viewBox="0 0 647 657" fill="none" xmlns="http://www.w3.org/2000/svg">
<g filter="url(#filter0_d_2032_40)">
<mask id="path-1-outside-1_2032_40" maskUnits="userSpaceOnUse" x="75" y="434" width="500" height="208" fill="black">
<rect fill="white" x="75" y="434" width="500" height="208"/>
<path d="M205.607 496.6H180.407L174.007 515H160.307L186.507 446.1H199.507L225.807 515H212.007L205.607 496.6ZM202.207 487L193.007 460.4L183.707 487H202.207ZM296.579 447V515L284.479 515.1L249.679 467.1L250.679 490V515H237.079V447H249.179L283.979 494.9L282.979 470.7V447H296.579ZM372.768 516.3C364.902 516.3 358.235 514.7 352.768 511.5C347.368 508.233 343.302 503.933 340.568 498.6C337.902 493.2 336.568 487.3 336.568 480.9C336.568 474.567 337.968 468.733 340.768 463.4C343.635 458.067 347.868 453.8 353.468 450.6C359.068 447.4 365.835 445.8 373.768 445.8C377.968 445.8 381.902 446.367 385.568 447.5C389.302 448.633 392.502 450.2 395.168 452.2L391.568 461.5C389.302 459.833 386.635 458.467 383.568 457.4C380.568 456.333 377.302 455.8 373.768 455.8C368.835 455.8 364.568 456.9 360.968 459.1C357.435 461.3 354.735 464.333 352.868 468.2C351.068 472 350.168 476.267 350.168 481C350.168 485.867 351.035 490.233 352.768 494.1C354.502 497.9 357.068 500.9 360.468 503.1C363.868 505.3 367.968 506.4 372.768 506.4C376.635 506.4 380.235 505.767 383.568 504.5C386.902 503.167 389.835 501.533 392.368 499.6L395.768 508.7C392.902 510.9 389.468 512.733 385.468 514.2C381.468 515.6 377.235 516.3 372.768 516.3ZM467.516 452.8C469.116 452.2 470.416 451.267 471.416 450C472.483 448.733 473.249 447.167 473.716 445.3C474.249 443.367 474.516 441.267 474.516 439H489.216L489.916 440.1C489.383 442.767 488.649 445.3 487.716 447.7C486.783 450.1 485.516 452.267 483.916 454.2C482.316 456.067 480.183 457.667 477.516 459C474.849 460.267 471.516 461.2 467.516 461.8V489.8C467.516 494.733 466.416 499.2 464.216 503.2C462.083 507.133 458.816 510.267 454.416 512.6C450.083 514.867 444.583 516 437.916 516C428.449 516 421.249 513.6 416.316 508.8C411.383 503.933 408.916 497.533 408.916 489.6V443.6H424.016V488.5C424.016 493.767 425.216 497.567 427.616 499.9C430.016 502.167 433.583 503.3 438.316 503.3C441.649 503.3 444.349 502.767 446.416 501.7C448.483 500.567 449.983 498.9 450.916 496.7C451.916 494.433 452.416 491.667 452.416 488.4V443.6H467.516V452.8ZM116.811 636.3C108.945 636.3 102.278 634.7 96.8113 631.5C91.4113 628.233 87.3447 623.933 84.6113 618.6C81.9447 613.2 80.6113 607.3 80.6113 600.9C80.6113 594.567 82.0113 588.733 84.8113 583.4C87.678 578.067 91.9113 573.8 97.5113 570.6C103.111 567.4 109.878 565.8 117.811 565.8C122.011 565.8 125.945 566.367 129.611 567.5C133.345 568.633 136.545 570.2 139.211 572.2L135.611 581.5C133.345 579.833 130.678 578.467 127.611 577.4C124.611 576.333 121.345 575.8 117.811 575.8C112.878 575.8 108.611 576.9 105.011 579.1C101.478 581.3 98.778 584.333 96.9113 588.2C95.1113 592 94.2113 596.267 94.2113 601C94.2113 605.867 95.078 610.233 96.8113 614.1C98.5447 617.9 101.111 620.9 104.511 623.1C107.911 625.3 112.011 626.4 116.811 626.4C120.678 626.4 124.278 625.767 127.611 624.5C130.945 623.167 133.878 621.533 136.411 619.6L139.811 628.7C136.945 630.9 133.511 632.733 129.511 634.2C125.511 635.6 121.278 636.3 116.811 636.3ZM184.559 636.4C177.092 636.4 170.726 634.833 165.459 631.7C160.192 628.5 156.192 624.233 153.459 618.9C150.792 613.5 149.459 607.567 149.459 601.1C149.459 594.567 150.792 588.633 153.459 583.3C156.126 577.967 160.092 573.733 165.359 570.6C170.692 567.4 177.092 565.8 184.559 565.8C191.959 565.8 198.292 567.4 203.559 570.6C208.892 573.733 212.892 577.967 215.559 583.3C218.292 588.633 219.659 594.533 219.659 601C219.659 607.533 218.292 613.5 215.559 618.9C212.892 624.233 208.926 628.5 203.659 631.7C198.392 634.833 192.026 636.4 184.559 636.4ZM184.659 626.4C189.126 626.4 192.959 625.3 196.159 623.1C199.426 620.9 201.892 617.9 203.559 614.1C205.292 610.233 206.159 605.867 206.159 601C206.159 596.2 205.292 591.9 203.559 588.1C201.892 584.3 199.426 581.3 196.159 579.1C192.959 576.9 189.126 575.8 184.659 575.8C180.126 575.8 176.226 576.9 172.959 579.1C169.759 581.3 167.326 584.3 165.659 588.1C163.992 591.9 163.159 596.2 163.159 601C163.159 605.867 163.992 610.233 165.659 614.1C167.326 617.9 169.759 620.9 172.959 623.1C176.226 625.3 180.126 626.4 184.659 626.4ZM294.332 567V635L282.232 635.1L247.432 587.1L248.432 610V635H234.832V567H246.932L281.732 614.9L280.732 590.7V567H294.332ZM373.922 567V635L361.822 635.1L327.022 587.1L328.022 610V635H314.422V567H326.522L361.322 614.9L360.322 590.7V567H373.922ZM437.912 625.3V635H394.012V567H435.912V576.7H407.612V594.2H431.912V603.9H407.612V625.3H437.912ZM484.389 636.3C476.523 636.3 469.856 634.7 464.389 631.5C458.989 628.233 454.923 623.933 452.189 618.6C449.523 613.2 448.189 607.3 448.189 600.9C448.189 594.567 449.589 588.733 452.389 583.4C455.256 578.067 459.489 573.8 465.089 570.6C470.689 567.4 477.456 565.8 485.389 565.8C489.589 565.8 493.523 566.367 497.189 567.5C500.923 568.633 504.123 570.2 506.789 572.2L503.189 581.5C500.923 579.833 498.256 578.467 495.189 577.4C492.189 576.333 488.923 575.8 485.389 575.8C480.456 575.8 476.189 576.9 472.589 579.1C469.056 581.3 466.356 584.333 464.489 588.2C462.689 592 461.789 596.267 461.789 601C461.789 605.867 462.656 610.233 464.389 614.1C466.123 617.9 468.689 620.9 472.089 623.1C475.489 625.3 479.589 626.4 484.389 626.4C488.256 626.4 491.856 625.767 495.189 624.5C498.523 623.167 501.456 621.533 503.989 619.6L507.389 628.7C504.523 630.9 501.089 632.733 497.089 634.2C493.089 635.6 488.856 636.3 484.389 636.3ZM569.737 576.8H549.037V635H535.437V576.8H514.737V567H569.737V576.8Z"/>
</mask>
<path d="M205.607 496.6H180.407L174.007 515H160.307L186.507 446.1H199.507L225.807 515H212.007L205.607 496.6ZM202.207 487L193.007 460.4L183.707 487H202.207ZM296.579 447V515L284.479 515.1L249.679 467.1L250.679 490V515H237.079V447H249.179L283.979 494.9L282.979 470.7V447H296.579ZM372.768 516.3C364.902 516.3 358.235 514.7 352.768 511.5C347.368 508.233 343.302 503.933 340.568 498.6C337.902 493.2 336.568 487.3 336.568 480.9C336.568 474.567 337.968 468.733 340.768 463.4C343.635 458.067 347.868 453.8 353.468 450.6C359.068 447.4 365.835 445.8 373.768 445.8C377.968 445.8 381.902 446.367 385.568 447.5C389.302 448.633 392.502 450.2 395.168 452.2L391.568 461.5C389.302 459.833 386.635 458.467 383.568 457.4C380.568 456.333 377.302 455.8 373.768 455.8C368.835 455.8 364.568 456.9 360.968 459.1C357.435 461.3 354.735 464.333 352.868 468.2C351.068 472 350.168 476.267 350.168 481C350.168 485.867 351.035 490.233 352.768 494.1C354.502 497.9 357.068 500.9 360.468 503.1C363.868 505.3 367.968 506.4 372.768 506.4C376.635 506.4 380.235 505.767 383.568 504.5C386.902 503.167 389.835 501.533 392.368 499.6L395.768 508.7C392.902 510.9 389.468 512.733 385.468 514.2C381.468 515.6 377.235 516.3 372.768 516.3ZM467.516 452.8C469.116 452.2 470.416 451.267 471.416 450C472.483 448.733 473.249 447.167 473.716 445.3C474.249 443.367 474.516 441.267 474.516 439H489.216L489.916 440.1C489.383 442.767 488.649 445.3 487.716 447.7C486.783 450.1 485.516 452.267 483.916 454.2C482.316 456.067 480.183 457.667 477.516 459C474.849 460.267 471.516 461.2 467.516 461.8V489.8C467.516 494.733 466.416 499.2 464.216 503.2C462.083 507.133 458.816 510.267 454.416 512.6C450.083 514.867 444.583 516 437.916 516C428.449 516 421.249 513.6 416.316 508.8C411.383 503.933 408.916 497.533 408.916 489.6V443.6H424.016V488.5C424.016 493.767 425.216 497.567 427.616 499.9C430.016 502.167 433.583 503.3 438.316 503.3C441.649 503.3 444.349 502.767 446.416 501.7C448.483 500.567 449.983 498.9 450.916 496.7C451.916 494.433 452.416 491.667 452.416 488.4V443.6H467.516V452.8ZM116.811 636.3C108.945 636.3 102.278 634.7 96.8113 631.5C91.4113 628.233 87.3447 623.933 84.6113 618.6C81.9447 613.2 80.6113 607.3 80.6113 600.9C80.6113 594.567 82.0113 588.733 84.8113 583.4C87.678 578.067 91.9113 573.8 97.5113 570.6C103.111 567.4 109.878 565.8 117.811 565.8C122.011 565.8 125.945 566.367 129.611 567.5C133.345 568.633 136.545 570.2 139.211 572.2L135.611 581.5C133.345 579.833 130.678 578.467 127.611 577.4C124.611 576.333 121.345 575.8 117.811 575.8C112.878 575.8 108.611 576.9 105.011 579.1C101.478 581.3 98.778 584.333 96.9113 588.2C95.1113 592 94.2113 596.267 94.2113 601C94.2113 605.867 95.078 610.233 96.8113 614.1C98.5447 617.9 101.111 620.9 104.511 623.1C107.911 625.3 112.011 626.4 116.811 626.4C120.678 626.4 124.278 625.767 127.611 624.5C130.945 623.167 133.878 621.533 136.411 619.6L139.811 628.7C136.945 630.9 133.511 632.733 129.511 634.2C125.511 635.6 121.278 636.3 116.811 636.3ZM184.559 636.4C177.092 636.4 170.726 634.833 165.459 631.7C160.192 628.5 156.192 624.233 153.459 618.9C150.792 613.5 149.459 607.567 149.459 601.1C149.459 594.567 150.792 588.633 153.459 583.3C156.126 577.967 160.092 573.733 165.359 570.6C170.692 567.4 177.092 565.8 184.559 565.8C191.959 565.8 198.292 567.4 203.559 570.6C208.892 573.733 212.892 577.967 215.559 583.3C218.292 588.633 219.659 594.533 219.659 601C219.659 607.533 218.292 613.5 215.559 618.9C212.892 624.233 208.926 628.5 203.659 631.7C198.392 634.833 192.026 636.4 184.559 636.4ZM184.659 626.4C189.126 626.4 192.959 625.3 196.159 623.1C199.426 620.9 201.892 617.9 203.559 614.1C205.292 610.233 206.159 605.867 206.159 601C206.159 596.2 205.292 591.9 203.559 588.1C201.892 584.3 199.426 581.3 196.159 579.1C192.959 576.9 189.126 575.8 184.659 575.8C180.126 575.8 176.226 576.9 172.959 579.1C169.759 581.3 167.326 584.3 165.659 588.1C163.992 591.9 163.159 596.2 163.159 601C163.159 605.867 163.992 610.233 165.659 614.1C167.326 617.9 169.759 620.9 172.959 623.1C176.226 625.3 180.126 626.4 184.659 626.4ZM294.332 567V635L282.232 635.1L247.432 587.1L248.432 610V635H234.832V567H246.932L281.732 614.9L280.732 590.7V567H294.332ZM373.922 567V635L361.822 635.1L327.022 587.1L328.022 610V635H314.422V567H326.522L361.322 614.9L360.322 590.7V567H373.922ZM437.912 625.3V635H394.012V567H435.912V576.7H407.612V594.2H431.912V603.9H407.612V625.3H437.912ZM484.389 636.3C476.523 636.3 469.856 634.7 464.389 631.5C458.989 628.233 454.923 623.933 452.189 618.6C449.523 613.2 448.189 607.3 448.189 600.9C448.189 594.567 449.589 588.733 452.389 583.4C455.256 578.067 459.489 573.8 465.089 570.6C470.689 567.4 477.456 565.8 485.389 565.8C489.589 565.8 493.523 566.367 497.189 567.5C500.923 568.633 504.123 570.2 506.789 572.2L503.189 581.5C500.923 579.833 498.256 578.467 495.189 577.4C492.189 576.333 488.923 575.8 485.389 575.8C480.456 575.8 476.189 576.9 472.589 579.1C469.056 581.3 466.356 584.333 464.489 588.2C462.689 592 461.789 596.267 461.789 601C461.789 605.867 462.656 610.233 464.389 614.1C466.123 617.9 468.689 620.9 472.089 623.1C475.489 625.3 479.589 626.4 484.389 626.4C488.256 626.4 491.856 625.767 495.189 624.5C498.523 623.167 501.456 621.533 503.989 619.6L507.389 628.7C504.523 630.9 501.089 632.733 497.089 634.2C493.089 635.6 488.856 636.3 484.389 636.3ZM569.737 576.8H549.037V635H535.437V576.8H514.737V567H569.737V576.8Z" fill="#E4002B"/>
<path d="M205.607 496.6L210.33 494.957L209.162 491.6H205.607V496.6ZM180.407 496.6V491.6H176.853L175.685 494.957L180.407 496.6ZM174.007 515V520H177.562L178.73 516.643L174.007 515ZM160.307 515L155.634 513.223L153.057 520H160.307V515ZM186.507 446.1V441.1H183.059L181.834 444.323L186.507 446.1ZM199.507 446.1L204.179 444.317L202.951 441.1H199.507V446.1ZM225.807 515V520H233.068L230.479 513.217L225.807 515ZM212.007 515L207.285 516.643L208.453 520H212.007V515ZM202.207 487V492H209.227L206.933 485.366L202.207 487ZM193.007 460.4L197.733 458.766L193.033 445.177L188.288 458.75L193.007 460.4ZM183.707 487L178.988 485.35L176.663 492H183.707V487ZM205.607 491.6H180.407V501.6H205.607V491.6ZM175.685 494.957L169.285 513.357L178.73 516.643L185.13 498.243L175.685 494.957ZM174.007 510H160.307V520H174.007V510ZM164.981 516.777L191.181 447.877L181.834 444.323L155.634 513.223L164.981 516.777ZM186.507 451.1H199.507V441.1H186.507V451.1ZM194.836 447.883L221.136 516.783L230.479 513.217L204.179 444.317L194.836 447.883ZM225.807 510H212.007V520H225.807V510ZM216.73 513.357L210.33 494.957L200.885 498.243L207.285 516.643L216.73 513.357ZM206.933 485.366L197.733 458.766L188.282 462.034L197.482 488.634L206.933 485.366ZM188.288 458.75L178.988 485.35L188.427 488.65L197.727 462.05L188.288 458.75ZM183.707 492H202.207V482H183.707V492ZM296.579 447H301.579V442H296.579V447ZM296.579 515L296.62 520L301.579 519.959V515H296.579ZM284.479 515.1L280.43 518.035L281.943 520.121L284.52 520.1L284.479 515.1ZM249.679 467.1L253.727 464.165L243.957 450.69L244.683 467.318L249.679 467.1ZM250.679 490H255.679V489.891L255.674 489.782L250.679 490ZM250.679 515V520H255.679V515H250.679ZM237.079 515H232.079V520H237.079V515ZM237.079 447V442H232.079V447H237.079ZM249.179 447L253.224 444.061L251.726 442H249.179V447ZM283.979 494.9L279.933 497.839L289.657 511.223L288.974 494.694L283.979 494.9ZM282.979 470.7H277.979V470.803L277.983 470.906L282.979 470.7ZM282.979 447V442H277.979V447H282.979ZM291.579 447V515H301.579V447H291.579ZM296.537 510L284.437 510.1L284.52 520.1L296.62 520L296.537 510ZM288.527 512.165L253.727 464.165L245.63 470.035L280.43 518.035L288.527 512.165ZM244.683 467.318L245.683 490.218L255.674 489.782L254.674 466.882L244.683 467.318ZM245.679 490V515H255.679V490H245.679ZM250.679 510H237.079V520H250.679V510ZM242.079 515V447H232.079V515H242.079ZM237.079 452H249.179V442H237.079V452ZM245.133 449.939L279.933 497.839L288.024 491.961L253.224 444.061L245.133 449.939ZM288.974 494.694L287.974 470.494L277.983 470.906L278.983 495.106L288.974 494.694ZM287.979 470.7V447H277.979V470.7H287.979ZM282.979 452H296.579V442H282.979V452ZM352.768 511.5L350.18 515.778L350.211 515.797L350.242 515.815L352.768 511.5ZM340.568 498.6L336.085 500.814L336.102 500.847L336.119 500.88L340.568 498.6ZM340.768 463.4L336.364 461.033L336.353 461.054L336.341 461.076L340.768 463.4ZM353.468 450.6L350.988 446.259V446.259L353.468 450.6ZM385.568 447.5L384.092 452.277L384.104 452.281L384.116 452.284L385.568 447.5ZM395.168 452.2L399.831 454.005L401.199 450.473L398.168 448.2L395.168 452.2ZM391.568 461.5L388.606 465.528L393.872 469.4L396.231 463.305L391.568 461.5ZM383.568 457.4L381.893 462.111L381.91 462.117L381.926 462.122L383.568 457.4ZM360.968 459.1L358.361 454.834L358.343 454.844L358.326 454.856L360.968 459.1ZM352.868 468.2L348.366 466.026L348.358 466.043L348.35 466.06L352.868 468.2ZM352.768 494.1L348.206 496.145L348.212 496.16L348.219 496.175L352.768 494.1ZM360.468 503.1L357.752 507.298L360.468 503.1ZM383.568 504.5L385.344 509.174L385.385 509.159L385.425 509.142L383.568 504.5ZM392.368 499.6L397.052 497.85L394.693 491.536L389.335 495.625L392.368 499.6ZM395.768 508.7L398.812 512.667L401.747 510.415L400.452 506.95L395.768 508.7ZM385.468 514.2L387.12 518.919L387.155 518.907L387.19 518.894L385.468 514.2ZM372.768 511.3C365.577 511.3 359.83 509.84 355.294 507.185L350.242 515.815C356.64 519.56 364.227 521.3 372.768 521.3V511.3ZM355.356 507.222C350.706 504.409 347.305 500.782 345.018 496.32L336.119 500.88C339.298 507.084 344.031 512.058 350.18 515.778L355.356 507.222ZM345.052 496.386C342.746 491.717 341.568 486.581 341.568 480.9H331.568C331.568 488.019 333.057 494.683 336.085 500.814L345.052 496.386ZM341.568 480.9C341.568 475.333 342.791 470.304 345.195 465.724L336.341 461.076C333.146 467.163 331.568 473.8 331.568 480.9H341.568ZM345.172 465.767C347.566 461.314 351.107 457.708 355.949 454.941L350.988 446.259C344.63 449.892 339.704 454.82 336.364 461.033L345.172 465.767ZM355.949 454.941C360.638 452.262 366.507 450.8 373.768 450.8V440.8C365.164 440.8 357.499 442.538 350.988 446.259L355.949 454.941ZM373.768 450.8C377.515 450.8 380.946 451.305 384.092 452.277L387.045 442.723C382.857 441.429 378.422 440.8 373.768 440.8V450.8ZM384.116 452.284C387.385 453.277 390.04 454.604 392.168 456.2L398.168 448.2C394.964 445.796 391.219 443.99 387.021 442.716L384.116 452.284ZM390.506 450.395L386.906 459.695L396.231 463.305L399.831 454.005L390.506 450.395ZM394.53 457.472C391.805 455.468 388.679 453.884 385.211 452.678L381.926 462.122C384.592 463.05 386.799 464.199 388.606 465.528L394.53 457.472ZM385.243 452.689C381.65 451.411 377.81 450.8 373.768 450.8V460.8C376.793 460.8 379.487 461.255 381.893 462.111L385.243 452.689ZM373.768 450.8C368.073 450.8 362.871 452.078 358.361 454.834L363.576 463.366C366.266 461.722 369.597 460.8 373.768 460.8V450.8ZM358.326 454.856C353.962 457.572 350.63 461.336 348.366 466.026L357.371 470.374C358.84 467.331 360.908 465.028 363.611 463.344L358.326 454.856ZM348.35 466.06C346.195 470.608 345.168 475.62 345.168 481H355.168C355.168 476.913 355.942 473.392 357.387 470.34L348.35 466.06ZM345.168 481C345.168 486.467 346.144 491.547 348.206 496.145L357.331 492.055C355.926 488.92 355.168 485.266 355.168 481H345.168ZM348.219 496.175C350.335 500.814 353.525 504.563 357.752 507.298L363.185 498.902C360.612 497.237 358.668 494.986 357.317 492.025L348.219 496.175ZM357.752 507.298C362.101 510.112 367.186 511.4 372.768 511.4V501.4C368.751 501.4 365.636 500.488 363.185 498.902L357.752 507.298ZM372.768 511.4C377.191 511.4 381.398 510.674 385.344 509.174L381.792 499.826C379.072 500.86 376.079 501.4 372.768 501.4V511.4ZM385.425 509.142C389.127 507.662 392.466 505.815 395.402 503.575L389.335 495.625C387.204 497.252 384.676 498.672 381.711 499.858L385.425 509.142ZM387.685 501.35L391.085 510.45L400.452 506.95L397.052 497.85L387.685 501.35ZM392.724 504.733C390.324 506.576 387.355 508.183 383.747 509.506L387.19 518.894C391.582 517.284 395.48 515.224 398.812 512.667L392.724 504.733ZM383.817 509.481C380.376 510.685 376.703 511.3 372.768 511.3V521.3C377.767 521.3 382.561 520.515 387.12 518.919L383.817 509.481ZM467.516 452.8H462.516V460.015L469.272 457.482L467.516 452.8ZM471.416 450L467.591 446.779L467.541 446.84L467.492 446.902L471.416 450ZM473.716 445.3L468.896 443.97L468.88 444.029L468.865 444.087L473.716 445.3ZM474.516 439V434H469.516V439H474.516ZM489.216 439L493.434 436.316L491.961 434H489.216V439ZM489.916 440.1L494.819 441.081L495.213 439.111L494.134 437.416L489.916 440.1ZM483.916 454.2L487.712 457.454L487.74 457.421L487.768 457.388L483.916 454.2ZM477.516 459L479.661 463.516L479.707 463.495L479.752 463.472L477.516 459ZM467.516 461.8L466.774 456.855L462.516 457.494V461.8H467.516ZM464.216 503.2L459.835 500.79L459.828 500.803L459.821 500.816L464.216 503.2ZM454.416 512.6L456.734 517.03L456.746 517.024L456.759 517.017L454.416 512.6ZM416.316 508.8L412.805 512.36L412.817 512.372L412.829 512.384L416.316 508.8ZM408.916 443.6V438.6H403.916V443.6H408.916ZM424.016 443.6H429.016V438.6H424.016V443.6ZM427.616 499.9L424.131 503.485L424.157 503.51L424.183 503.535L427.616 499.9ZM446.416 501.7L448.709 506.143L448.765 506.114L448.82 506.084L446.416 501.7ZM450.916 496.7L446.341 494.682L446.327 494.714L446.313 494.747L450.916 496.7ZM452.416 443.6V438.6H447.416V443.6H452.416ZM467.516 443.6H472.516V438.6H467.516V443.6ZM469.272 457.482C471.673 456.581 473.742 455.123 475.34 453.098L467.492 446.902C467.09 447.41 466.559 447.819 465.76 448.118L469.272 457.482ZM475.241 453.221C476.871 451.284 477.945 448.999 478.567 446.513L468.865 444.087C468.553 445.335 468.094 446.182 467.591 446.779L475.241 453.221ZM478.536 446.63C479.203 444.211 479.516 441.659 479.516 439H469.516C469.516 440.875 469.296 442.522 468.896 443.97L478.536 446.63ZM474.516 444H489.216V434H474.516V444ZM484.998 441.684L485.698 442.784L494.134 437.416L493.434 436.316L484.998 441.684ZM485.013 439.119C484.533 441.518 483.879 443.772 483.056 445.888L492.376 449.512C493.42 446.828 494.232 444.015 494.819 441.081L485.013 439.119ZM483.056 445.888C482.312 447.802 481.314 449.502 480.064 451.012L487.768 457.388C489.718 455.031 491.254 452.398 492.376 449.512L483.056 445.888ZM480.12 450.946C479.035 452.211 477.474 453.431 475.28 454.528L479.752 463.472C482.891 461.903 485.597 459.922 487.712 457.454L480.12 450.946ZM475.371 454.484C473.278 455.478 470.454 456.303 466.774 456.855L468.258 466.745C472.578 466.097 476.42 465.056 479.661 463.516L475.371 454.484ZM462.516 461.8V489.8H472.516V461.8H462.516ZM462.516 489.8C462.516 493.961 461.597 497.588 459.835 500.79L468.597 505.61C471.236 500.812 472.516 495.506 472.516 489.8H462.516ZM459.821 500.816C458.209 503.788 455.706 506.256 452.074 508.183L456.759 517.017C461.926 514.277 465.956 510.478 468.611 505.584L459.821 500.816ZM452.099 508.17C448.692 509.951 444.055 511 437.916 511V521C445.111 521 451.473 519.782 456.734 517.03L452.099 508.17ZM437.916 511C429.254 511 423.498 508.812 419.803 505.216L412.829 512.384C419 518.388 427.644 521 437.916 521V511ZM419.827 505.24C415.987 501.452 413.916 496.406 413.916 489.6H403.916C403.916 498.66 406.779 506.415 412.805 512.36L419.827 505.24ZM413.916 489.6V443.6H403.916V489.6H413.916ZM408.916 448.6H424.016V438.6H408.916V448.6ZM419.016 443.6V488.5H429.016V443.6H419.016ZM419.016 488.5C419.016 494.363 420.33 499.79 424.131 503.485L431.101 496.315C430.102 495.343 429.016 493.17 429.016 488.5H419.016ZM424.183 503.535C427.847 506.996 432.858 508.3 438.316 508.3V498.3C434.307 498.3 432.185 497.338 431.049 496.265L424.183 503.535ZM438.316 508.3C442.124 508.3 445.694 507.7 448.709 506.143L444.123 497.257C443.005 497.834 441.174 498.3 438.316 498.3V508.3ZM448.82 506.084C451.887 504.402 454.153 501.872 455.519 498.653L446.313 494.747C445.812 495.928 445.078 496.731 444.012 497.316L448.82 506.084ZM455.491 498.718C456.845 495.648 457.416 492.151 457.416 488.4H447.416C447.416 491.182 446.987 493.219 446.341 494.682L455.491 498.718ZM457.416 488.4V443.6H447.416V488.4H457.416ZM452.416 448.6H467.516V438.6H452.416V448.6ZM462.516 443.6V452.8H472.516V443.6H462.516ZM96.8113 631.5L94.2233 635.778L94.2542 635.797L94.2854 635.815L96.8113 631.5ZM84.6113 618.6L80.1282 620.814L80.1447 620.847L80.1617 620.88L84.6113 618.6ZM84.8113 583.4L80.4072 581.033L80.3957 581.054L80.3843 581.076L84.8113 583.4ZM97.5113 570.6L95.0306 566.259L97.5113 570.6ZM129.611 567.5L128.135 572.277L128.147 572.281L128.159 572.284L129.611 567.5ZM139.211 572.2L143.874 574.005L145.242 570.473L142.211 568.2L139.211 572.2ZM135.611 581.5L132.649 585.528L137.915 589.4L140.274 583.305L135.611 581.5ZM127.611 577.4L125.936 582.111L125.952 582.117L125.969 582.122L127.611 577.4ZM105.011 579.1L102.404 574.834L102.386 574.844L102.369 574.856L105.011 579.1ZM96.9113 588.2L92.4086 586.026L92.4005 586.043L92.3926 586.06L96.9113 588.2ZM96.8113 614.1L92.2488 616.145L92.2555 616.16L92.2622 616.175L96.8113 614.1ZM104.511 623.1L101.795 627.298L104.511 623.1ZM127.611 624.5L129.387 629.174L129.428 629.159L129.468 629.142L127.611 624.5ZM136.411 619.6L141.095 617.85L138.736 611.536L133.378 615.625L136.411 619.6ZM139.811 628.7L142.855 632.667L145.79 630.415L144.495 626.95L139.811 628.7ZM129.511 634.2L131.163 638.919L131.198 638.907L131.233 638.894L129.511 634.2ZM116.811 631.3C109.62 631.3 103.873 629.84 99.3372 627.185L94.2854 635.815C100.683 639.56 108.27 641.3 116.811 641.3V631.3ZM99.3993 627.222C94.7491 624.409 91.3482 620.782 89.061 616.32L80.1617 620.88C83.3411 627.084 88.0735 632.058 94.2233 635.778L99.3993 627.222ZM89.0945 616.386C86.789 611.717 85.6113 606.581 85.6113 600.9H75.6113C75.6113 608.019 77.1003 614.683 80.1282 620.814L89.0945 616.386ZM85.6113 600.9C85.6113 595.333 86.8342 590.304 89.2383 585.724L80.3843 581.076C77.1885 587.163 75.6113 593.8 75.6113 600.9H85.6113ZM89.2155 585.767C91.6093 581.314 95.1501 577.708 99.992 574.941L95.0306 566.259C88.6726 569.892 83.7467 574.82 80.4072 581.033L89.2155 585.767ZM99.992 574.941C104.681 572.262 110.55 570.8 117.811 570.8V560.8C109.206 560.8 101.542 562.538 95.0306 566.259L99.992 574.941ZM117.811 570.8C121.558 570.8 124.989 571.305 128.135 572.277L131.088 562.723C126.9 561.429 122.465 560.8 117.811 560.8V570.8ZM128.159 572.284C131.428 573.277 134.083 574.604 136.211 576.2L142.211 568.2C139.006 565.796 135.262 563.99 131.064 562.716L128.159 572.284ZM134.548 570.395L130.948 579.695L140.274 583.305L143.874 574.005L134.548 570.395ZM138.573 577.472C135.848 575.468 132.721 573.884 129.254 572.678L125.969 582.122C128.634 583.05 130.842 584.199 132.649 585.528L138.573 577.472ZM129.286 572.689C125.693 571.411 121.853 570.8 117.811 570.8V580.8C120.836 580.8 123.53 581.255 125.936 582.111L129.286 572.689ZM117.811 570.8C112.116 570.8 106.914 572.078 102.404 574.834L107.619 583.366C110.309 581.722 113.64 580.8 117.811 580.8V570.8ZM102.369 574.856C98.0054 577.572 94.673 581.336 92.4086 586.026L101.414 590.374C102.883 587.331 104.951 585.028 107.654 583.344L102.369 574.856ZM92.3926 586.06C90.238 590.608 89.2113 595.62 89.2113 601H99.2113C99.2113 596.913 99.9847 593.392 101.43 590.34L92.3926 586.06ZM89.2113 601C89.2113 606.467 90.1873 611.547 92.2488 616.145L101.374 612.055C99.9687 608.92 99.2113 605.266 99.2113 601H89.2113ZM92.2622 616.175C94.3784 620.814 97.568 624.563 101.795 627.298L107.228 618.902C104.655 617.237 102.711 614.986 101.36 612.025L92.2622 616.175ZM101.795 627.298C106.144 630.112 111.229 631.4 116.811 631.4V621.4C112.794 621.4 109.679 620.488 107.228 618.902L101.795 627.298ZM116.811 631.4C121.234 631.4 125.441 630.674 129.387 629.174L125.835 619.826C123.115 620.86 120.122 621.4 116.811 621.4V631.4ZM129.468 629.142C133.17 627.662 136.509 625.815 139.445 623.575L133.378 615.625C131.247 617.252 128.719 618.672 125.754 619.858L129.468 629.142ZM131.728 621.35L135.128 630.45L144.495 626.95L141.095 617.85L131.728 621.35ZM136.767 624.733C134.366 626.576 131.398 628.183 127.79 629.506L131.233 638.894C135.625 637.284 139.523 635.224 142.855 632.667L136.767 624.733ZM127.86 629.481C124.419 630.685 120.746 631.3 116.811 631.3V641.3C121.81 641.3 126.604 640.515 131.163 638.919L127.86 629.481ZM165.459 631.7L162.863 635.973L162.883 635.985L162.903 635.997L165.459 631.7ZM153.459 618.9L148.976 621.114L148.992 621.147L149.009 621.18L153.459 618.9ZM153.459 583.3L148.987 581.064L153.459 583.3ZM165.359 570.6L167.915 574.897L167.923 574.892L167.931 574.887L165.359 570.6ZM203.559 570.6L200.963 574.873L200.994 574.892L201.026 574.911L203.559 570.6ZM215.559 583.3L211.087 585.536L211.098 585.558L211.109 585.58L215.559 583.3ZM215.559 618.9L211.098 616.642L211.092 616.653L211.087 616.664L215.559 618.9ZM203.659 631.7L206.215 635.997L206.235 635.985L206.255 635.973L203.659 631.7ZM196.159 623.1L193.366 618.953L193.346 618.966L193.326 618.98L196.159 623.1ZM203.559 614.1L198.996 612.055L198.988 612.073L198.98 612.092L203.559 614.1ZM203.559 588.1L198.98 590.108L198.995 590.142L199.01 590.175L203.559 588.1ZM196.159 579.1L193.326 583.22L193.346 583.234L193.366 583.247L196.159 579.1ZM172.959 579.1L170.166 574.953L170.146 574.966L170.126 574.98L172.959 579.1ZM165.659 588.1L170.238 590.108L165.659 588.1ZM165.659 614.1L161.067 616.079L161.074 616.094L161.08 616.108L165.659 614.1ZM172.959 623.1L170.126 627.22L170.146 627.234L170.166 627.247L172.959 623.1ZM184.559 631.4C177.796 631.4 172.356 629.985 168.015 627.403L162.903 635.997C169.095 639.681 176.389 641.4 184.559 641.4V631.4ZM168.055 627.427C163.555 624.693 160.208 621.106 157.909 616.62L149.009 621.18C152.177 627.361 156.829 632.307 162.863 635.973L168.055 627.427ZM157.942 616.686C155.64 612.025 154.459 606.857 154.459 601.1H144.459C144.459 608.277 145.944 614.975 148.976 621.114L157.942 616.686ZM154.459 601.1C154.459 595.267 155.644 590.111 157.931 585.536L148.987 581.064C145.941 587.156 144.459 593.866 144.459 601.1H154.459ZM157.931 585.536C160.157 581.084 163.447 577.555 167.915 574.897L162.803 566.303C156.737 569.911 152.094 574.85 148.987 581.064L157.931 585.536ZM167.931 574.887C172.345 572.239 177.816 570.8 184.559 570.8V560.8C176.369 560.8 169.04 562.561 162.787 566.313L167.931 574.887ZM184.559 570.8C191.228 570.8 196.623 572.236 200.963 574.873L206.155 566.327C199.962 562.564 192.69 560.8 184.559 560.8V570.8ZM201.026 574.911C205.559 577.574 208.869 581.101 211.087 585.536L220.031 581.064C216.915 574.833 212.226 569.893 206.092 566.289L201.026 574.911ZM211.109 585.58C213.453 590.153 214.659 595.262 214.659 601H224.659C224.659 593.804 223.132 587.114 220.009 581.02L211.109 585.58ZM214.659 601C214.659 606.812 213.449 611.997 211.098 616.642L220.02 621.158C223.135 615.003 224.659 608.254 224.659 601H214.659ZM211.087 616.664C208.856 621.126 205.553 624.699 201.063 627.427L206.255 635.973C212.298 632.301 216.929 627.341 220.031 621.136L211.087 616.664ZM201.103 627.403C196.762 629.985 191.322 631.4 184.559 631.4V641.4C192.729 641.4 200.023 639.681 206.215 635.997L201.103 627.403ZM184.659 631.4C189.98 631.4 194.838 630.076 198.992 627.22L193.326 618.98C191.08 620.524 188.271 621.4 184.659 621.4V631.4ZM198.952 627.247C203.048 624.489 206.112 620.727 208.138 616.108L198.98 612.092C197.673 615.073 195.804 617.311 193.366 618.953L198.952 627.247ZM208.122 616.145C210.183 611.547 211.159 606.467 211.159 601H201.159C201.159 605.266 200.402 608.92 198.996 612.055L208.122 616.145ZM211.159 601C211.159 595.591 210.18 590.567 208.108 586.025L199.01 590.175C200.405 593.233 201.159 596.809 201.159 601H211.159ZM208.138 586.092C206.112 581.473 203.048 577.711 198.952 574.953L193.366 583.247C195.804 584.889 197.673 587.127 198.98 590.108L208.138 586.092ZM198.992 574.98C194.838 572.124 189.98 570.8 184.659 570.8V580.8C188.271 580.8 191.08 581.676 193.326 583.22L198.992 574.98ZM184.659 570.8C179.285 570.8 174.378 572.116 170.166 574.953L175.752 583.247C178.074 581.684 180.966 580.8 184.659 580.8V570.8ZM170.126 574.98C166.106 577.744 163.094 581.5 161.08 586.092L170.238 590.108C171.557 587.1 173.412 584.856 175.792 583.22L170.126 574.98ZM161.08 586.092C159.096 590.616 158.159 595.616 158.159 601H168.159C168.159 596.784 168.889 593.184 170.238 590.108L161.08 586.092ZM158.159 601C158.159 606.442 159.093 611.498 161.067 616.079L170.251 612.121C168.892 608.969 168.159 605.291 168.159 601H158.159ZM161.08 616.108C163.094 620.7 166.106 624.456 170.126 627.22L175.792 618.98C173.412 617.344 171.557 615.1 170.238 612.092L161.08 616.108ZM170.166 627.247C174.378 630.084 179.285 631.4 184.659 631.4V621.4C180.966 621.4 178.074 620.516 175.752 618.953L170.166 627.247ZM294.332 567H299.332V562H294.332V567ZM294.332 635L294.374 640L299.332 639.959V635H294.332ZM282.232 635.1L278.184 638.035L279.697 640.121L282.274 640.1L282.232 635.1ZM247.432 587.1L251.48 584.165L241.711 570.69L242.437 587.318L247.432 587.1ZM248.432 610H253.432V609.891L253.428 609.782L248.432 610ZM248.432 635V640H253.432V635H248.432ZM234.832 635H229.832V640H234.832V635ZM234.832 567V562H229.832V567H234.832ZM246.932 567L250.978 564.061L249.48 562H246.932V567ZM281.732 614.9L277.687 617.839L287.411 631.223L286.728 614.694L281.732 614.9ZM280.732 590.7H275.732V590.803L275.737 590.906L280.732 590.7ZM280.732 567V562H275.732V567H280.732ZM289.332 567V635H299.332V567H289.332ZM294.291 630L282.191 630.1L282.274 640.1L294.374 640L294.291 630ZM286.28 632.165L251.48 584.165L243.384 590.035L278.184 638.035L286.28 632.165ZM242.437 587.318L243.437 610.218L253.428 609.782L252.428 586.882L242.437 587.318ZM243.432 610V635H253.432V610H243.432ZM248.432 630H234.832V640H248.432V630ZM239.832 635V567H229.832V635H239.832ZM234.832 572H246.932V562H234.832V572ZM242.887 569.939L277.687 617.839L285.778 611.961L250.978 564.061L242.887 569.939ZM286.728 614.694L285.728 590.494L275.737 590.906L276.737 615.106L286.728 614.694ZM285.732 590.7V567H275.732V590.7H285.732ZM280.732 572H294.332V562H280.732V572ZM373.922 567H378.922V562H373.922V567ZM373.922 635L373.964 640L378.922 639.959V635H373.922ZM361.822 635.1L357.774 638.035L359.287 640.121L361.864 640.1L361.822 635.1ZM327.022 587.1L331.07 584.165L321.301 570.69L322.027 587.318L327.022 587.1ZM328.022 610H333.022V609.891L333.018 609.782L328.022 610ZM328.022 635V640H333.022V635H328.022ZM314.422 635H309.422V640H314.422V635ZM314.422 567V562H309.422V567H314.422ZM326.522 567L330.567 564.061L329.07 562H326.522V567ZM361.322 614.9L357.277 617.839L367.001 631.223L366.318 614.694L361.322 614.9ZM360.322 590.7H355.322V590.803L355.327 590.906L360.322 590.7ZM360.322 567V562H355.322V567H360.322ZM368.922 567V635H378.922V567H368.922ZM373.881 630L361.781 630.1L361.864 640.1L373.964 640L373.881 630ZM365.87 632.165L331.07 584.165L322.974 590.035L357.774 638.035L365.87 632.165ZM322.027 587.318L323.027 610.218L333.018 609.782L332.018 586.882L322.027 587.318ZM323.022 610V635H333.022V610H323.022ZM328.022 630H314.422V640H328.022V630ZM319.422 635V567H309.422V635H319.422ZM314.422 572H326.522V562H314.422V572ZM322.477 569.939L357.277 617.839L365.367 611.961L330.567 564.061L322.477 569.939ZM366.318 614.694L365.318 590.494L355.327 590.906L356.327 615.106L366.318 614.694ZM365.322 590.7V567H355.322V590.7H365.322ZM360.322 572H373.922V562H360.322V572ZM437.912 625.3H442.912V620.3H437.912V625.3ZM437.912 635V640H442.912V635H437.912ZM394.012 635H389.012V640H394.012V635ZM394.012 567V562H389.012V567H394.012ZM435.912 567H440.912V562H435.912V567ZM435.912 576.7V581.7H440.912V576.7H435.912ZM407.612 576.7V571.7H402.612V576.7H407.612ZM407.612 594.2H402.612V599.2H407.612V594.2ZM431.912 594.2H436.912V589.2H431.912V594.2ZM431.912 603.9V608.9H436.912V603.9H431.912ZM407.612 603.9V598.9H402.612V603.9H407.612ZM407.612 625.3H402.612V630.3H407.612V625.3ZM432.912 625.3V635H442.912V625.3H432.912ZM437.912 630H394.012V640H437.912V630ZM399.012 635V567H389.012V635H399.012ZM394.012 572H435.912V562H394.012V572ZM430.912 567V576.7H440.912V567H430.912ZM435.912 571.7H407.612V581.7H435.912V571.7ZM402.612 576.7V594.2H412.612V576.7H402.612ZM407.612 599.2H431.912V589.2H407.612V599.2ZM426.912 594.2V603.9H436.912V594.2H426.912ZM431.912 598.9H407.612V608.9H431.912V598.9ZM402.612 603.9V625.3H412.612V603.9H402.612ZM407.612 630.3H437.912V620.3H407.612V630.3ZM464.389 631.5L461.801 635.778L461.832 635.797L461.864 635.815L464.389 631.5ZM452.189 618.6L447.706 620.814L447.723 620.847L447.74 620.88L452.189 618.6ZM452.389 583.4L447.985 581.033L447.974 581.054L447.962 581.076L452.389 583.4ZM465.089 570.6L462.609 566.259L465.089 570.6ZM497.189 567.5L495.713 572.277L495.725 572.281L495.737 572.284L497.189 567.5ZM506.789 572.2L511.452 574.005L512.82 570.473L509.789 568.2L506.789 572.2ZM503.189 581.5L500.228 585.528L505.493 589.4L507.852 583.305L503.189 581.5ZM495.189 577.4L493.514 582.111L493.531 582.117L493.547 582.122L495.189 577.4ZM472.589 579.1L469.982 574.834L469.964 574.844L469.947 574.856L472.589 579.1ZM464.489 588.2L459.987 586.026L459.979 586.043L459.971 586.06L464.489 588.2ZM464.389 614.1L459.827 616.145L459.834 616.16L459.84 616.175L464.389 614.1ZM472.089 623.1L469.373 627.298L472.089 623.1ZM495.189 624.5L496.966 629.174L497.006 629.159L497.046 629.142L495.189 624.5ZM503.989 619.6L508.673 617.85L506.314 611.536L500.956 615.625L503.989 619.6ZM507.389 628.7L510.434 632.667L513.368 630.415L512.073 626.95L507.389 628.7ZM497.089 634.2L498.741 638.919L498.776 638.907L498.811 638.894L497.089 634.2ZM484.389 631.3C477.198 631.3 471.451 629.84 466.915 627.185L461.864 635.815C468.261 639.56 475.848 641.3 484.389 641.3V631.3ZM466.977 627.222C462.327 624.409 458.926 620.782 456.639 616.32L447.74 620.88C450.919 627.084 455.652 632.058 461.801 635.778L466.977 627.222ZM456.673 616.386C454.367 611.717 453.189 606.581 453.189 600.9H443.189C443.189 608.019 444.678 614.683 447.706 620.814L456.673 616.386ZM453.189 600.9C453.189 595.333 454.412 590.304 456.816 585.724L447.962 581.076C444.767 587.163 443.189 593.8 443.189 600.9H453.189ZM456.794 585.767C459.187 581.314 462.728 577.708 467.57 574.941L462.609 566.259C456.251 569.892 451.325 574.82 447.985 581.033L456.794 585.767ZM467.57 574.941C472.259 572.262 478.128 570.8 485.389 570.8V560.8C476.785 560.8 469.12 562.538 462.609 566.259L467.57 574.941ZM485.389 570.8C489.136 570.8 492.567 571.305 495.713 572.277L498.666 562.723C494.478 561.429 490.043 560.8 485.389 560.8V570.8ZM495.737 572.284C499.006 573.277 501.661 574.604 503.789 576.2L509.789 568.2C506.585 565.796 502.84 563.99 498.642 562.716L495.737 572.284ZM502.127 570.395L498.527 579.695L507.852 583.305L511.452 574.005L502.127 570.395ZM506.151 577.472C503.426 575.468 500.3 573.884 496.832 572.678L493.547 582.122C496.213 583.05 498.42 584.199 500.228 585.528L506.151 577.472ZM496.865 572.689C493.271 571.411 489.431 570.8 485.389 570.8V580.8C488.414 580.8 491.108 581.255 493.514 582.111L496.865 572.689ZM485.389 570.8C479.694 570.8 474.492 572.078 469.982 574.834L475.197 583.366C477.887 581.722 481.218 580.8 485.389 580.8V570.8ZM469.947 574.856C465.584 577.572 462.251 581.336 459.987 586.026L468.992 590.374C470.461 587.331 472.529 585.028 475.232 583.344L469.947 574.856ZM459.971 586.06C457.816 590.608 456.789 595.62 456.789 601H466.789C466.789 596.913 467.563 593.392 469.008 590.34L459.971 586.06ZM456.789 601C456.789 606.467 457.765 611.547 459.827 616.145L468.952 612.055C467.547 608.92 466.789 605.266 466.789 601H456.789ZM459.84 616.175C461.957 620.814 465.146 624.563 469.373 627.298L474.806 618.902C472.233 617.237 470.289 614.986 468.939 612.025L459.84 616.175ZM469.373 627.298C473.722 630.112 478.807 631.4 484.389 631.4V621.4C480.372 621.4 477.257 620.488 474.806 618.902L469.373 627.298ZM484.389 631.4C488.812 631.4 493.019 630.674 496.966 629.174L493.413 619.826C490.693 620.86 487.701 621.4 484.389 621.4V631.4ZM497.046 629.142C500.748 627.662 504.087 625.815 507.023 623.575L500.956 615.625C498.825 617.252 496.298 618.672 493.333 619.858L497.046 629.142ZM499.306 621.35L502.706 630.45L512.073 626.95L508.673 617.85L499.306 621.35ZM504.345 624.733C501.945 626.576 498.976 628.183 495.368 629.506L498.811 638.894C503.203 637.284 507.101 635.224 510.434 632.667L504.345 624.733ZM495.438 629.481C491.997 630.685 488.324 631.3 484.389 631.3V641.3C489.388 641.3 494.182 640.515 498.741 638.919L495.438 629.481ZM569.737 576.8V581.8H574.737V576.8H569.737ZM549.037 576.8V571.8H544.037V576.8H549.037ZM549.037 635V640H554.037V635H549.037ZM535.437 635H530.437V640H535.437V635ZM535.437 576.8H540.437V571.8H535.437V576.8ZM514.737 576.8H509.737V581.8H514.737V576.8ZM514.737 567V562H509.737V567H514.737ZM569.737 567H574.737V562H569.737V567ZM569.737 571.8H549.037V581.8H569.737V571.8ZM544.037 576.8V635H554.037V576.8H544.037ZM549.037 630H535.437V640H549.037V630ZM540.437 635V576.8H530.437V635H540.437ZM535.437 571.8H514.737V581.8H535.437V571.8ZM519.737 576.8V567H509.737V576.8H519.737ZM514.737 572H569.737V562H514.737V572ZM564.737 567V576.8H574.737V567H564.737Z" fill="white" mask="url(#path-1-outside-1_2032_40)"/>
</g>
<g filter="url(#filter1_d_2032_40)">
<path d="M314.238 1.18251C311.267 1.80788 306.655 3.29312 304.075 4.54385C297.118 7.9052 128.889 128.835 126.466 132.197C122.557 137.747 123.339 145.251 128.499 150.958C131.782 154.632 135.065 156.195 139.521 156.195C144.133 156.195 146.791 154.866 157.579 147.049C194.477 120.393 314.316 34.7178 316.426 33.4671C320.57 31.0438 325.495 30.6529 329.56 32.4508C331.436 33.3107 370.679 61.0614 416.644 94.0494C462.688 127.038 501.384 154.554 502.791 155.101C505.761 156.352 510.686 156.508 513.501 155.414C516.862 154.163 521.631 149.238 523.038 145.564C524.679 141.186 524.21 136.027 521.709 132.353C520.458 130.477 497.866 113.827 452.604 81.3858C415.628 54.8859 377.323 27.3697 367.395 20.2562C347.383 5.87276 342.067 2.8241 333.234 1.10434C325.885 -0.380905 321.43 -0.380905 314.238 1.18251Z" fill="#E4002B"/>
</g>
<g filter="url(#filter2_d_2032_40)">
<path d="M315.567 78.8843C305.56 80.6041 302.668 82.4802 236.846 130.008C202.059 155.179 171.572 177.614 169.227 179.881C163.989 185.04 159.611 192.232 157.266 199.58L155.546 205.052V283.223V361.394L157.735 367.647C162.035 379.92 170.008 389.066 181.343 394.694C192.288 400.088 192.913 400.166 248.025 399.932C293.991 399.697 297.196 399.619 299.697 398.29C302.824 396.571 305.873 393.444 307.124 390.708C307.671 389.379 308.14 377.184 308.375 352.639L308.766 316.602L311.111 313.24C317.599 304.094 330.419 304.094 336.908 313.24L339.253 316.602L339.644 352.639C339.878 377.184 340.347 389.379 340.895 390.708C342.145 393.444 345.194 396.571 348.321 398.29C350.823 399.619 353.871 399.697 402.182 399.697C453.307 399.697 453.386 399.697 459.014 397.899C474.023 393.209 485.124 382.422 490.283 367.647L492.472 361.394V283.223V205.052L490.752 199.58C488.563 192.623 484.186 185.197 479.339 180.35C477.307 178.318 456.747 162.918 433.608 146.268C410.547 129.617 381.935 108.98 370.131 100.46C347.696 84.2 344.412 82.1675 337.299 80.0569C331.983 78.4935 321.117 77.8681 315.567 78.8843ZM329.872 110.778C331.592 111.56 360.907 132.353 394.99 156.977C442.285 191.059 457.529 202.472 459.092 204.896L461.203 208.101L461.437 281.581C461.672 363.817 461.985 359.127 456.122 364.442C454.48 365.928 451.744 367.491 450.102 367.96C448.226 368.507 433.451 368.82 409.061 368.82H370.913V343.18C370.913 314.257 370.444 310.426 365.754 300.811C362.158 293.541 353.324 284.395 346.132 280.643C339.878 277.36 330.654 275.015 324.009 275.015C317.365 275.015 308.14 277.36 301.886 280.643C294.694 284.395 285.861 293.541 282.265 300.811C277.574 310.426 277.105 314.257 277.105 343.18V368.82H239.035C214.567 368.82 199.792 368.507 197.916 367.96C196.275 367.491 193.538 365.928 191.897 364.442C186.034 359.127 186.347 363.817 186.581 281.581L186.816 208.101L188.848 204.974C190.49 202.551 205.968 190.981 252.559 157.29C286.486 132.822 315.801 112.029 317.677 111.013C321.82 108.902 325.651 108.824 329.872 110.778Z" fill="#E4002B"/>
</g>
<defs>
<filter id="filter0_d_2032_40" x="80.6113" y="439" width="509.126" height="217.4" filterUnits="userSpaceOnUse" color-interpolation-filters="sRGB">
<feFlood flood-opacity="0" result="BackgroundImageFix"/>
<feColorMatrix in="SourceAlpha" type="matrix" values="0 0 0 0 0 0 0 0 0 0 0 0 0 0 0 0 0 0 127 0" result="hardAlpha"/>
<feOffset dx="10" dy="10"/>
<feGaussianBlur stdDeviation="5"/>
<feComposite in2="hardAlpha" operator="out"/>
<feColorMatrix type="matrix" values="0 0 0 0 0 0 0 0 0 0 0 0 0 0 0 0 0 0 0.5 0"/>
<feBlend mode="normal" in2="BackgroundImageFix" result="effect1_dropShadow_2032_40"/>
<feBlend mode="normal" in="SourceGraphic" in2="effect1_dropShadow_2032_40" result="shape"/>
</filter>
<filter id="filter1_d_2032_40" x="124" y="0" width="425" height="181.195" filterUnits="userSpaceOnUse" color-interpolation-filters="sRGB">
<feFlood flood-opacity="0" result="BackgroundImageFix"/>
<feColorMatrix in="SourceAlpha" type="matrix" values="0 0 0 0 0 0 0 0 0 0 0 0 0 0 0 0 0 0 127 0" result="hardAlpha"/>
<feOffset dx="15" dy="15"/>
<feGaussianBlur stdDeviation="5"/>
<feComposite in2="hardAlpha" operator="out"/>
<feColorMatrix type="matrix" values="0 0 0 0 0 0 0 0 0 0 0 0 0 0 0 0 0 0 0.5 0"/>
<feBlend mode="normal" in2="BackgroundImageFix" result="effect1_dropShadow_2032_40"/>
<feBlend mode="normal" in="SourceGraphic" in2="effect1_dropShadow_2032_40" result="shape"/>
</filter>
<filter id="filter2_d_2032_40" x="155.546" y="78.3893" width="361.926" height="346.611" filterUnits="userSpaceOnUse" color-interpolation-filters="sRGB">
<feFlood flood-opacity="0" result="BackgroundImageFix"/>
<feColorMatrix in="SourceAlpha" type="matrix" values="0 0 0 0 0 0 0 0 0 0 0 0 0 0 0 0 0 0 127 0" result="hardAlpha"/>
<feOffset dx="15" dy="15"/>
<feGaussianBlur stdDeviation="5"/>
<feComposite in2="hardAlpha" operator="out"/>
<feColorMatrix type="matrix" values="0 0 0 0 0 0 0 0 0 0 0 0 0 0 0 0 0 0 0.5 0"/>
<feBlend mode="normal" in2="BackgroundImageFix" result="effect1_dropShadow_2032_40"/>
<feBlend mode="normal" in="SourceGraphic" in2="effect1_dropShadow_2032_40" result="shape"/>
</filter>
</defs>
</svg>
